<?xml version="1.0" encoding="UTF-8" standalone="no"?>
<!DOCTYPE svg PUBLIC "-//W3C//DTD SVG 1.1//EN" "http://www.w3.org/Graphics/SVG/1.1/DTD/svg11.dtd">
<svg xmlns="http://www.w3.org/2000/svg" version="1.1" viewBox="0.00 0.00 512.00 512.00">
<g stroke-width="2.00" fill="none" stroke-linecap="butt">
<path stroke="#b8d6ee" vector-effect="non-scaling-stroke" d="
  M 417.37 52.68
  Q 410.44 84.58 403.73 116.25
  Q 402.15 123.72 396.13 127.35
  Q 392.77 129.37 383.96 130.65
  Q 364.43 133.46 344.92 136.10"
/>
<path stroke="#cde3f9" vector-effect="non-scaling-stroke" d="
  M 344.92 136.10
  Q 317.42 139.88 290.00 143.77
  Q 281.43 144.98 275.79 139.71
  Q 219.69 87.33 163.46 34.90"
/>
<path stroke="#c2dcf3" vector-effect="non-scaling-stroke" d="
  M 344.92 136.10
  Q 354.80 205.20 364.60 273.92
  C 366.36 286.22 373.05 292.60 384.18 296.68
  Q 403.24 303.67 421.81 310.74
  C 427.49 312.91 432.02 316.43 435.24 321.84
  Q 437.18 325.09 439.34 335.15
  Q 446.95 370.74 454.83 406.87"
/>
<path stroke="#cde3f9" vector-effect="non-scaling-stroke" d="
  M 424.66 437.07
  Q 394.61 403.31 364.57 369.68
  C 359.89 364.44 351.62 366.39 349.97 373.13
  Q 348.89 377.56 351.26 380.24
  Q 381.85 414.80 412.54 449.23"
/>
<path stroke="#c2dcf3" vector-effect="non-scaling-stroke" d="
  M 324.04 503.67
  Q 324.11 502.39 324.12 501.50
  Q 324.28 470.19 324.25 444.27
  C 324.24 438.47 323.30 434.15 319.56 430.21
  Q 286.14 394.98 252.47 359.52
  Q 251.81 358.82 251.03 358.26"
/>
<path stroke="#cde3f9" vector-effect="non-scaling-stroke" d="
  M 251.03 358.26
  L 205.97 310.39
  Q 205.63 310.03 206.02 309.73
  Q 207.48 308.61 208.85 307.37
  Q 247.02 272.93 286.13 237.85
  C 289.56 234.78 291.78 231.30 289.82 226.82
  C 287.51 221.53 280.74 219.71 276.38 223.63
  Q 235.32 260.56 194.38 297.35
  A 0.54 0.54 0.0 0 1 193.61 297.32
  Q 184.95 288.14 177.53 280.31
  Q 173.17 275.70 172.66 270.32
  Q 172.34 266.94 174.02 260.80
  Q 178.59 244.12 183.12 227.40"
/>
<path stroke="#c2dcf3" vector-effect="non-scaling-stroke" d="
  M 183.12 227.40
  Q 187.53 211.42 191.88 195.39
  Q 194.17 186.99 193.83 183.41
  Q 193.19 176.67 187.60 172.14
  Q 149.33 141.15 110.97 109.94"
/>
<path stroke="#b8d6ee" vector-effect="non-scaling-stroke" d="
  M 251.03 358.26
  Q 250.84 358.42 250.67 358.56
  Q 250.52 358.69 250.33 358.73
  Q 224.05 364.47 197.72 369.89
  Q 184.67 372.57 178.62 375.43
  Q 166.85 380.98 158.45 392.20
  Q 129.61 430.74 100.58 469.33"
/>
<path stroke="#b8d6ee" vector-effect="non-scaling-stroke" d="
  M 183.12 227.40
  Q 158.57 221.81 134.28 216.52
  Q 126.34 214.79 122.13 214.55
  Q 115.38 214.17 109.75 215.47
  Q 58.99 227.17 8.30 238.87"
/>
</g>
<path fill="#c3ddf4" d="
  M 417.37 52.68
  Q 410.44 84.58 403.73 116.25
  Q 402.15 123.72 396.13 127.35
  Q 392.77 129.37 383.96 130.65
  Q 364.43 133.46 344.92 136.10
  Q 317.42 139.88 290.00 143.77
  Q 281.43 144.98 275.79 139.71
  Q 219.69 87.33 163.46 34.90
  Q 168.11 31.26 171.99 30.19
  Q 209.55 19.89 247.14 9.68
  Q 256.32 7.18 264.94 9.47
  Q 330.21 26.83 396.84 44.20
  Q 403.01 45.81 407.48 47.27
  Q 412.78 49.00 417.37 52.68
  Z"
/>
<path fill="#d7e9fd" d="
  M 163.46 34.90
  Q 219.69 87.33 275.79 139.71
  Q 281.43 144.98 290.00 143.77
  Q 317.42 139.88 344.92 136.10
  Q 354.80 205.20 364.60 273.92
  C 366.36 286.22 373.05 292.60 384.18 296.68
  Q 403.24 303.67 421.81 310.74
  C 427.49 312.91 432.02 316.43 435.24 321.84
  Q 437.18 325.09 439.34 335.15
  Q 446.95 370.74 454.83 406.87
  L 424.66 437.07
  Q 394.61 403.31 364.57 369.68
  C 359.89 364.44 351.62 366.39 349.97 373.13
  Q 348.89 377.56 351.26 380.24
  Q 381.85 414.80 412.54 449.23
  Q 390.58 471.17 369.40 492.64
  Q 358.53 503.67 344.50 503.46
  Q 334.25 503.31 324.04 503.67
  Q 324.11 502.39 324.12 501.50
  Q 324.28 470.19 324.25 444.27
  C 324.24 438.47 323.30 434.15 319.56 430.21
  Q 286.14 394.98 252.47 359.52
  Q 251.81 358.82 251.03 358.26
  L 205.97 310.39
  Q 205.63 310.03 206.02 309.73
  Q 207.48 308.61 208.85 307.37
  Q 247.02 272.93 286.13 237.85
  C 289.56 234.78 291.78 231.30 289.82 226.82
  C 287.51 221.53 280.74 219.71 276.38 223.63
  Q 235.32 260.56 194.38 297.35
  A 0.54 0.54 0.0 0 1 193.61 297.32
  Q 184.95 288.14 177.53 280.31
  Q 173.17 275.70 172.66 270.32
  Q 172.34 266.94 174.02 260.80
  Q 178.59 244.12 183.12 227.40
  Q 187.53 211.42 191.88 195.39
  Q 194.17 186.99 193.83 183.41
  Q 193.19 176.67 187.60 172.14
  Q 149.33 141.15 110.97 109.94
  Q 133.89 75.48 156.48 41.75
  Q 158.40 38.87 163.46 34.90
  Z"
/>
<path fill="#accfe8" d="
  M 417.37 52.68
  Q 422.25 56.32 424.74 60.23
  Q 458.87 113.96 472.62 135.83
  Q 478.14 144.62 478.09 155.18
  Q 477.97 179.03 478.08 186.13
  C 478.24 196.89 476.54 206.26 472.08 215.86
  Q 469.42 221.59 468.48 225.78
  Q 465.93 237.24 469.93 248.44
  Q 471.84 253.79 477.42 261.47
  Q 487.90 275.88 497.41 289.51
  C 502.62 296.97 503.64 303.93 503.73 313.88
  Q 503.88 329.70 503.56 344.74
  Q 503.39 352.73 499.68 359.82
  Q 497.40 364.18 490.50 371.17
  Q 473.16 388.76 454.83 406.87
  Q 446.95 370.74 439.34 335.15
  Q 437.18 325.09 435.24 321.84
  C 432.02 316.43 427.49 312.91 421.81 310.74
  Q 403.24 303.67 384.18 296.68
  C 373.05 292.60 366.36 286.22 364.60 273.92
  Q 354.80 205.20 344.92 136.10
  Q 364.43 133.46 383.96 130.65
  Q 392.77 129.37 396.13 127.35
  Q 402.15 123.72 403.73 116.25
  Q 410.44 84.58 417.37 52.68
  Z"
/>
<path fill="#accfe8" d="
  M 110.97 109.94
  Q 149.33 141.15 187.60 172.14
  Q 193.19 176.67 193.83 183.41
  Q 194.17 186.99 191.88 195.39
  Q 187.53 211.42 183.12 227.40
  Q 158.57 221.81 134.28 216.52
  Q 126.34 214.79 122.13 214.55
  Q 115.38 214.17 109.75 215.47
  Q 58.99 227.17 8.30 238.87
  Q 8.21 221.77 8.35 204.25
  Q 8.39 198.68 10.92 192.76
  Q 12.29 189.57 16.82 182.76
  Q 27.06 167.34 37.80 151.25
  C 41.94 145.04 47.36 141.71 54.79 137.98
  Q 83.16 123.73 110.97 109.94
  Z"
/>
<path fill="#c3ddf4" d="
  M 183.12 227.40
  Q 178.59 244.12 174.02 260.80
  Q 172.34 266.94 172.66 270.32
  Q 173.17 275.70 177.53 280.31
  Q 184.95 288.14 193.61 297.32
  A 0.54 0.54 0.0 0 0 194.38 297.35
  Q 235.32 260.56 276.38 223.63
  C 280.74 219.71 287.51 221.53 289.82 226.82
  C 291.78 231.30 289.56 234.78 286.13 237.85
  Q 247.02 272.93 208.85 307.37
  Q 207.48 308.61 206.02 309.73
  Q 205.63 310.03 205.97 310.39
  L 251.03 358.26
  Q 250.84 358.42 250.67 358.56
  Q 250.52 358.69 250.33 358.73
  Q 224.05 364.47 197.72 369.89
  Q 184.67 372.57 178.62 375.43
  Q 166.85 380.98 158.45 392.20
  Q 129.61 430.74 100.58 469.33
  Q 95.62 465.01 93.34 460.65
  Q 53.18 383.87 12.33 305.70
  C 8.98 299.30 8.34 293.26 8.32 285.26
  Q 8.25 262.24 8.30 238.87
  Q 58.99 227.17 109.75 215.47
  Q 115.38 214.17 122.13 214.55
  Q 126.34 214.79 134.28 216.52
  Q 158.57 221.81 183.12 227.40
  Z"
/>
<path fill="#accfe8" d="
  M 251.03 358.26
  Q 251.81 358.82 252.47 359.52
  Q 286.14 394.98 319.56 430.21
  C 323.30 434.15 324.24 438.47 324.25 444.27
  Q 324.28 470.19 324.12 501.50
  Q 324.11 502.39 324.04 503.67
  Q 273.55 503.77 223.05 503.70
  Q 209.40 503.68 204.09 502.36
  Q 193.83 499.80 186.60 493.56
  Q 183.65 491.02 180.30 488.05
  Q 173.68 482.19 163.93 479.46
  Q 158.00 477.79 148.69 477.86
  Q 138.13 477.94 128.17 478.04
  Q 119.26 478.13 114.08 476.70
  Q 106.56 474.62 100.58 469.33
  Q 129.61 430.74 158.45 392.20
  Q 166.85 380.98 178.62 375.43
  Q 184.67 372.57 197.72 369.89
  Q 224.05 364.47 250.33 358.73
  Q 250.52 358.69 250.67 358.56
  Q 250.84 358.42 251.03 358.26
  Z"
/>
<path fill="#c3ddf4" d="
  M 424.66 437.07
  L 412.54 449.23
  Q 381.85 414.80 351.26 380.24
  Q 348.89 377.56 349.97 373.13
  C 351.62 366.39 359.89 364.44 364.57 369.68
  Q 394.61 403.31 424.66 437.07
  Z"
/>
</svg>
