<?xml version="1.0" encoding="UTF-8" standalone="no"?>
<!DOCTYPE svg PUBLIC "-//W3C//DTD SVG 1.1//EN" "http://www.w3.org/Graphics/SVG/1.1/DTD/svg11.dtd">
<svg xmlns="http://www.w3.org/2000/svg" version="1.1" viewBox="0.00 0.00 512.00 512.00">
<g stroke-width="2.00" fill="none" stroke-linecap="butt">
<path stroke="#ffc861" vector-effect="non-scaling-stroke" d="
  M 256.01 0.00
  L 256.01 156.03
  Q 256.01 156.53 255.51 156.55
  Q 230.42 157.71 217.92 179.47
  Q 209.09 194.85 201.11 208.58
  A 0.50 0.49 38.3 0 1 200.32 208.67
  Q 196.67 204.74 191.00 204.15
  C 179.19 202.92 171.66 213.63 174.63 224.61
  Q 177.99 237.05 180.51 247.32
  Q 182.13 253.94 184.10 257.01
  Q 187.83 262.81 194.93 263.84
  Q 198.63 264.38 205.01 262.64
  Q 217.55 259.21 229.63 256.09
  C 246.57 251.72 244.90 228.05 227.68 225.64
  A 0.31 0.31 0.0 0 1 227.45 225.18
  Q 236.33 209.71 245.31 194.27
  Q 248.95 188.00 255.99 187.69
  L 256.00 306.07
  Q 256.00 307.01 255.33 306.35
  C 244.30 295.42 226.71 305.37 229.28 320.31
  Q 229.39 320.97 228.73 320.97
  Q 211.69 320.97 197.07 321.04
  Q 190.53 321.07 187.92 319.82
  C 182.77 317.37 179.49 311.40 181.49 305.64
  Q 182.10 303.91 182.91 302.20
  C 185.60 296.48 184.96 290.19 180.91 285.31
  C 175.51 278.81 165.76 277.85 159.21 283.28
  Q 155.43 286.42 152.98 292.86
  Q 145.41 312.74 155.69 330.52
  Q 164.48 345.72 181.39 350.47
  Q 187.89 352.29 200.43 352.10
  Q 214.37 351.89 228.92 352.09
  A 0.40 0.39 6.1 0 1 229.30 352.56
  C 227.99 359.26 231.07 366.30 237.02 369.33
  Q 246.84 374.32 255.62 366.53
  A 0.25 0.25 0.0 0 1 256.04 366.72
  L 256.03 512.00"
/>
<path stroke="#fd9037" vector-effect="non-scaling-stroke" d="
  M 255.99 187.69
  C 261.36 187.84 264.13 190.56 267.15 194.71
  C 271.74 201.00 278.99 203.04 286.16 200.00
  C 294.55 196.45 297.79 186.08 293.23 178.15
  C 285.53 164.74 272.27 157.23 256.65 156.59
  Q 256.03 156.57 256.03 157.19
  L 255.99 187.69"
/>
<path stroke="#fd9037" vector-effect="non-scaling-stroke" d="
  M 311.28 272.17
  A 0.21 0.20 -44.5 0 1 311.63 272.17
  Q 321.62 289.16 329.25 302.76
  Q 333.39 310.13 328.31 316.55
  C 324.84 320.93 320.54 320.54 315.74 321.48
  C 308.31 322.92 303.31 329.79 303.72 337.46
  C 304.18 346.15 311.42 352.25 319.98 351.99
  Q 337.41 351.46 349.36 339.62
  C 360.61 328.47 364.88 312.10 360.48 296.94
  Q 358.76 291.03 352.11 279.85
  Q 345.53 268.80 338.65 256.61
  A 0.30 0.29 -15.8 0 1 338.90 256.17
  Q 346.73 255.77 350.93 250.35
  C 356.42 243.25 355.29 233.37 348.03 228.25
  Q 345.00 226.11 339.91 224.85
  Q 326.29 221.49 312.47 217.71
  C 305.19 215.72 298.90 216.59 293.82 222.62
  Q 291.74 225.10 289.98 232.05
  Q 286.07 247.50 282.59 260.67
  C 280.21 269.71 285.84 279.02 295.12 280.25
  Q 305.42 281.61 311.28 272.17"
/>
<path stroke="#fd9037" vector-effect="non-scaling-stroke" d="
  M 274.95 347.10
  C 281.08 340.88 280.08 331.23 274.31 325.30
  Q 267.35 318.15 256.61 307.51
  Q 256.00 306.91 256.00 307.77
  L 256.00 365.53
  A 0.25 0.24 68.0 0 0 256.41 365.71
  Q 265.85 356.33 274.95 347.10"
/>
</g>
<path fill="#ffdf80" d="
  M 152.88 0.00
  L 154.24 0.00
  Q 155.49 0.45 156.84 0.65
  C 160.03 1.15 162.19 2.56 164.58 4.67
  Q 184.23 22.08 204.43 39.90
  A 0.44 0.43 44.4 0 0 205.00 39.90
  Q 225.36 21.93 245.42 4.17
  Q 248.94 1.05 251.19 0.84
  Q 253.36 0.63 255.38 0.00
  L 256.01 0.00
  L 256.01 156.03
  Q 256.01 156.53 255.51 156.55
  Q 230.42 157.71 217.92 179.47
  Q 209.09 194.85 201.11 208.58
  A 0.50 0.49 38.3 0 1 200.32 208.67
  Q 196.67 204.74 191.00 204.15
  C 179.19 202.92 171.66 213.63 174.63 224.61
  Q 177.99 237.05 180.51 247.32
  Q 182.13 253.94 184.10 257.01
  Q 187.83 262.81 194.93 263.84
  Q 198.63 264.38 205.01 262.64
  Q 217.55 259.21 229.63 256.09
  C 246.57 251.72 244.90 228.05 227.68 225.64
  A 0.31 0.31 0.0 0 1 227.45 225.18
  Q 236.33 209.71 245.31 194.27
  Q 248.95 188.00 255.99 187.69
  L 256.00 306.07
  Q 256.00 307.01 255.33 306.35
  C 244.30 295.42 226.71 305.37 229.28 320.31
  Q 229.39 320.97 228.73 320.97
  Q 211.69 320.97 197.07 321.04
  Q 190.53 321.07 187.92 319.82
  C 182.77 317.37 179.49 311.40 181.49 305.64
  Q 182.10 303.91 182.91 302.20
  C 185.60 296.48 184.96 290.19 180.91 285.31
  C 175.51 278.81 165.76 277.85 159.21 283.28
  Q 155.43 286.42 152.98 292.86
  Q 145.41 312.74 155.69 330.52
  Q 164.48 345.72 181.39 350.47
  Q 187.89 352.29 200.43 352.10
  Q 214.37 351.89 228.92 352.09
  A 0.40 0.39 6.1 0 1 229.30 352.56
  C 227.99 359.26 231.07 366.30 237.02 369.33
  Q 246.84 374.32 255.62 366.53
  A 0.25 0.25 0.0 0 1 256.04 366.72
  L 256.03 512.00
  L 49.50 512.00
  Q 35.31 509.33 35.31 495.25
  Q 35.33 258.35 35.32 21.46
  Q 35.32 13.34 36.37 10.37
  C 39.27 2.12 48.42 -1.94 56.62 1.27
  Q 59.57 2.43 64.06 6.43
  Q 83.94 24.12 102.04 39.99
  A 0.24 0.24 0.0 0 0 102.36 39.99
  Q 122.91 21.78 143.44 3.69
  Q 146.24 1.22 149.24 0.72
  Q 152.13 0.24 152.88 0.00
  Z"
/>
<path fill="#ffb042" d="
  M 256.01 0.00
  L 257.98 0.00
  Q 263.00 0.85 266.66 4.09
  Q 286.74 21.87 306.96 39.58
  Q 307.34 39.91 307.72 39.58
  Q 327.16 22.35 347.84 4.11
  Q 351.58 0.82 356.65 0.00
  L 360.48 0.00
  Q 365.60 0.86 368.67 3.58
  Q 389.11 21.62 409.48 39.63
  A 0.53 0.53 0.0 0 0 410.19 39.63
  Q 430.72 21.47 451.33 3.32
  Q 453.41 1.49 458.40 0.00
  L 463.92 0.00
  Q 476.88 3.71 476.88 16.50
  Q 476.87 253.27 476.88 490.04
  Q 476.88 499.48 475.31 502.99
  Q 472.34 509.62 464.10 512.00
  L 256.03 512.00
  L 256.04 366.72
  A 0.25 0.25 0.0 0 0 255.62 366.53
  Q 246.84 374.32 237.02 369.33
  C 231.07 366.30 227.99 359.26 229.30 352.56
  A 0.40 0.39 6.1 0 0 228.92 352.09
  Q 214.37 351.89 200.43 352.10
  Q 187.89 352.29 181.39 350.47
  Q 164.48 345.72 155.69 330.52
  Q 145.41 312.74 152.98 292.86
  Q 155.43 286.42 159.21 283.28
  C 165.76 277.85 175.51 278.81 180.91 285.31
  C 184.96 290.19 185.60 296.48 182.91 302.20
  Q 182.10 303.91 181.49 305.64
  C 179.49 311.40 182.77 317.37 187.92 319.82
  Q 190.53 321.07 197.07 321.04
  Q 211.69 320.97 228.73 320.97
  Q 229.39 320.97 229.28 320.31
  C 226.71 305.37 244.30 295.42 255.33 306.35
  Q 256.00 307.01 256.00 306.07
  L 255.99 187.69
  C 261.36 187.84 264.13 190.56 267.15 194.71
  C 271.74 201.00 278.99 203.04 286.16 200.00
  C 294.55 196.45 297.79 186.08 293.23 178.15
  C 285.53 164.74 272.27 157.23 256.65 156.59
  Q 256.03 156.57 256.03 157.19
  L 255.99 187.69
  Q 248.95 188.00 245.31 194.27
  Q 236.33 209.71 227.45 225.18
  A 0.31 0.31 0.0 0 0 227.68 225.64
  C 244.90 228.05 246.57 251.72 229.63 256.09
  Q 217.55 259.21 205.01 262.64
  Q 198.63 264.38 194.93 263.84
  Q 187.83 262.81 184.10 257.01
  Q 182.13 253.94 180.51 247.32
  Q 177.99 237.05 174.63 224.61
  C 171.66 213.63 179.19 202.92 191.00 204.15
  Q 196.67 204.74 200.32 208.67
  A 0.50 0.49 38.3 0 0 201.11 208.58
  Q 209.09 194.85 217.92 179.47
  Q 230.42 157.71 255.51 156.55
  Q 256.01 156.53 256.01 156.03
  L 256.01 0.00
  Z
  M 311.28 272.17
  A 0.21 0.20 -44.5 0 1 311.63 272.17
  Q 321.62 289.16 329.25 302.76
  Q 333.39 310.13 328.31 316.55
  C 324.84 320.93 320.54 320.54 315.74 321.48
  C 308.31 322.92 303.31 329.79 303.72 337.46
  C 304.18 346.15 311.42 352.25 319.98 351.99
  Q 337.41 351.46 349.36 339.62
  C 360.61 328.47 364.88 312.10 360.48 296.94
  Q 358.76 291.03 352.11 279.85
  Q 345.53 268.80 338.65 256.61
  A 0.30 0.29 -15.8 0 1 338.90 256.17
  Q 346.73 255.77 350.93 250.35
  C 356.42 243.25 355.29 233.37 348.03 228.25
  Q 345.00 226.11 339.91 224.85
  Q 326.29 221.49 312.47 217.71
  C 305.19 215.72 298.90 216.59 293.82 222.62
  Q 291.74 225.10 289.98 232.05
  Q 286.07 247.50 282.59 260.67
  C 280.21 269.71 285.84 279.02 295.12 280.25
  Q 305.42 281.61 311.28 272.17
  Z
  M 274.95 347.10
  C 281.08 340.88 280.08 331.23 274.31 325.30
  Q 267.35 318.15 256.61 307.51
  Q 256.00 306.91 256.00 307.77
  L 256.00 365.53
  A 0.25 0.24 68.0 0 0 256.41 365.71
  Q 265.85 356.33 274.95 347.10
  Z"
/>
<path fill="#fb702b" d="
  M 255.99 187.69
  L 256.03 157.19
  Q 256.03 156.57 256.65 156.59
  C 272.27 157.23 285.53 164.74 293.23 178.15
  C 297.79 186.08 294.55 196.45 286.16 200.00
  C 278.99 203.04 271.74 201.00 267.15 194.71
  C 264.13 190.56 261.36 187.84 255.99 187.69
  Z"
/>
<path fill="#fb702b" d="
  M 311.28 272.17
  Q 305.42 281.61 295.12 280.25
  C 285.84 279.02 280.21 269.71 282.59 260.67
  Q 286.07 247.50 289.98 232.05
  Q 291.74 225.10 293.82 222.62
  C 298.90 216.59 305.19 215.72 312.47 217.71
  Q 326.29 221.49 339.91 224.85
  Q 345.00 226.11 348.03 228.25
  C 355.29 233.37 356.42 243.25 350.93 250.35
  Q 346.73 255.77 338.90 256.17
  A 0.30 0.29 -15.8 0 0 338.65 256.61
  Q 345.53 268.80 352.11 279.85
  Q 358.76 291.03 360.48 296.94
  C 364.88 312.10 360.61 328.47 349.36 339.62
  Q 337.41 351.46 319.98 351.99
  C 311.42 352.25 304.18 346.15 303.72 337.46
  C 303.31 329.79 308.31 322.92 315.74 321.48
  C 320.54 320.54 324.84 320.93 328.31 316.55
  Q 333.39 310.13 329.25 302.76
  Q 321.62 289.16 311.63 272.17
  A 0.21 0.20 -44.5 0 0 311.28 272.17
  Z"
/>
<path fill="#fb702b" d="
  M 274.31 325.30
  C 280.08 331.23 281.08 340.88 274.95 347.10
  Q 265.85 356.33 256.41 365.71
  A 0.25 0.24 68.0 0 1 256.00 365.53
  L 256.00 307.77
  Q 256.00 306.91 256.61 307.51
  Q 267.35 318.15 274.31 325.30
  Z"
/>
</svg>
