<svg width="43" height="24" viewBox="0 0 43 24" fill="none" xmlns="http://www.w3.org/2000/svg">
<rect x="0.5" width="42" height="24" rx="8" fill="black"/>
<path d="M21.5 20H30.5" stroke="white" stroke-width="2" stroke-linecap="round" stroke-linejoin="round"/>
<path d="M26 3.49998C26.3978 3.10216 26.9374 2.87866 27.5 2.87866C27.7786 2.87866 28.0544 2.93353 28.3118 3.04014C28.5692 3.14674 28.803 3.303 29 3.49998C29.197 3.69697 29.3532 3.93082 29.4598 4.18819C29.5665 4.44556 29.6213 4.72141 29.6213 4.99998C29.6213 5.27856 29.5665 5.55441 29.4598 5.81178C29.3532 6.06915 29.197 6.303 29 6.49998L16.5 19L12.5 20L13.5 16L26 3.49998Z" stroke="white" stroke-width="2" stroke-linecap="round" stroke-linejoin="round"/>
</svg>
