<?xml version="1.0" encoding="UTF-8" standalone="no"?>
<!DOCTYPE svg PUBLIC "-//W3C//DTD SVG 1.1//EN" "http://www.w3.org/Graphics/SVG/1.1/DTD/svg11.dtd">
<svg xmlns="http://www.w3.org/2000/svg" version="1.1" viewBox="0.00 0.00 512.00 512.00">
<g stroke-width="2.00" fill="none" stroke-linecap="butt">
<path stroke="#112b45" vector-effect="non-scaling-stroke" d="
  M 471.28 40.68
  L 430.81 81.15
  Q 430.11 81.85 430.82 82.54
  Q 453.82 105.07 476.30 127.70
  Q 476.69 128.09 477.80 128.51"
/>
<path stroke="#54885a" vector-effect="non-scaling-stroke" d="
  M 465.25 234.88
  Q 468.26 227.43 466.21 221.48
  Q 465.07 218.16 459.21 212.31
  Q 419.43 172.53 379.66 132.74"
/>
<path stroke="#19527f" vector-effect="non-scaling-stroke" d="
  M 379.66 132.74
  Q 379.78 132.09 380.31 131.56
  Q 405.02 106.92 429.52 82.43
  Q 430.00 81.94 429.52 81.46
  L 382.98 34.96"
/>
<path stroke="#55a283" vector-effect="non-scaling-stroke" d="
  M 379.66 132.74
  Q 379.50 132.67 379.34 132.68"
/>
<path stroke="#6dac98" vector-effect="non-scaling-stroke" d="
  M 379.34 132.68
  Q 337.78 91.11 296.21 49.55
  Q 288.54 41.88 277.14 47.18"
/>
<path stroke="#a8e273" vector-effect="non-scaling-stroke" d="
  M 379.34 132.68
  L 323.71 188.30
  Q 323.19 188.82 322.63 188.34
  Q 307.83 175.54 288.89 180.40
  Q 278.60 183.04 268.30 185.92
  Q 267.45 186.15 267.19 185.31
  C 264.19 175.54 251.89 171.69 243.82 177.95
  Q 240.80 180.29 238.50 184.46
  Q 234.67 191.38 230.29 198.53
  Q 227.45 203.17 226.77 206.86
  C 225.28 214.82 229.91 220.31 236.79 224.26
  Q 244.96 228.95 252.53 233.39
  C 263.03 239.54 275.18 233.38 276.01 221.17
  C 276.12 219.44 275.62 217.75 275.26 216.01
  Q 275.13 215.41 275.73 215.25
  Q 286.88 212.25 297.59 209.44
  Q 299.54 208.92 300.91 209.99
  A 0.69 0.69 0.0 0 1 300.98 211.02
  L 245.63 266.37
  A 0.54 0.54 0.0 0 1 244.74 266.17
  Q 242.09 259.00 235.35 256.57
  C 231.43 255.16 226.51 255.31 222.96 257.74
  Q 221.78 258.55 220.67 259.25
  Q 220.20 259.55 219.80 259.15
  Q 212.47 251.83 203.82 243.16
  C 201.97 241.31 201.61 238.64 202.88 236.35
  C 204.03 234.27 206.25 233.96 208.20 233.08
  C 221.47 227.13 219.64 208.06 205.51 204.60
  C 198.86 202.97 190.27 207.10 185.23 211.20
  C 173.05 221.09 168.53 237.34 174.22 252.21
  Q 176.88 259.16 183.24 265.48
  Q 190.95 273.13 198.39 280.55
  Q 198.79 280.95 198.50 281.43
  C 197.61 282.86 196.53 284.21 195.92 285.78
  C 192.72 293.97 197.21 302.69 205.47 305.46
  A 0.53 0.52 -58.1 0 1 205.67 306.33
  L 128.21 383.79"
/>
<path stroke="#6dac98" vector-effect="non-scaling-stroke" d="
  M 128.21 383.79
  Q 89.76 345.36 51.81 307.39
  Q 43.57 299.15 42.42 296.99
  Q 38.85 290.26 42.64 281.71"
/>
<path stroke="#54885a" vector-effect="non-scaling-stroke" d="
  M 230.61 469.35
  Q 219.11 474.93 211.08 466.91
  Q 169.46 425.36 128.06 383.90"
/>
<path stroke="#55a283" vector-effect="non-scaling-stroke" d="
  M 128.06 383.90
  Q 128.13 383.84 128.21 383.79"
/>
<path stroke="#73bd5e" vector-effect="non-scaling-stroke" d="
  M 332.06 226.33
  C 337.08 213.94 333.46 199.12 323.63 189.36
  A 0.72 0.71 -45.3 0 0 322.61 189.37
  L 302.15 209.86
  A 0.59 0.58 -45.3 0 0 302.15 210.69
  C 305.21 213.81 303.31 216.69 303.39 220.29
  C 303.61 230.07 312.59 237.06 322.01 234.65
  Q 329.46 232.76 332.06 226.33"
/>
<path stroke="#73bd5e" vector-effect="non-scaling-stroke" d="
  M 314.72 294.11
  C 326.10 298.68 337.72 289.33 335.46 277.35
  Q 334.81 273.86 330.37 266.71
  Q 326.18 259.93 322.81 253.81
  C 318.96 246.82 314.08 242.54 305.69 243.39
  Q 302.45 243.72 292.97 249.47
  Q 285.60 253.94 278.50 258.07
  C 269.14 263.52 268.46 275.70 276.30 282.77
  C 278.55 284.79 281.33 285.61 284.26 286.02
  A 0.69 0.68 -78.9 0 1 284.83 286.88
  Q 282.13 297.09 279.37 307.23
  C 278.46 310.60 274.19 312.51 271.21 310.33
  C 269.52 309.10 268.08 307.70 266.16 306.80
  C 253.46 300.80 239.81 313.96 245.94 326.76
  Q 247.91 330.87 252.63 334.34
  C 264.71 343.23 280.21 343.92 292.86 336.24
  Q 305.02 328.85 309.01 313.80
  Q 311.65 303.87 314.22 294.36
  A 0.37 0.37 0.0 0 1 314.72 294.11"
/>
<path stroke="#73bd5e" vector-effect="non-scaling-stroke" d="
  M 235.53 305.22
  C 242.00 302.86 245.41 296.92 245.47 290.01
  Q 245.58 279.27 245.40 269.25
  Q 245.35 266.60 243.48 268.47
  L 207.82 304.13
  Q 205.79 306.16 208.66 306.19
  Q 217.58 306.28 225.85 306.23
  Q 232.88 306.19 235.53 305.22"
/>
<path stroke="#19527f" vector-effect="non-scaling-stroke" d="
  M 128.06 383.90
  L 77.48 434.51"
/>
</g>
<path fill="#183756" d="
  M 422.88 0.00
  L 425.54 0.00
  Q 431.44 0.86 436.00 5.50
  Q 444.06 13.72 471.28 40.68
  L 430.81 81.15
  Q 430.11 81.85 430.82 82.54
  Q 453.82 105.07 476.30 127.70
  Q 476.69 128.09 477.80 128.51
  Q 477.38 129.14 477.76 129.51
  Q 487.22 138.86 495.82 147.66
  Q 503.92 155.95 506.44 166.41
  Q 508.86 176.44 506.27 185.88
  Q 503.35 196.52 496.33 203.59
  Q 480.95 219.07 465.25 234.88
  Q 468.26 227.43 466.21 221.48
  Q 465.07 218.16 459.21 212.31
  Q 419.43 172.53 379.66 132.74
  Q 379.78 132.09 380.31 131.56
  Q 405.02 106.92 429.52 82.43
  Q 430.00 81.94 429.52 81.46
  L 382.98 34.96
  Q 398.22 19.72 413.34 4.59
  Q 417.08 0.85 422.88 0.00
  Z"
/>
<path fill="#1a6ca7" d="
  M 382.98 34.96
  L 429.52 81.46
  Q 430.00 81.94 429.52 82.43
  Q 405.02 106.92 380.31 131.56
  Q 379.78 132.09 379.66 132.74
  Q 379.50 132.67 379.34 132.68
  Q 337.78 91.11 296.21 49.55
  Q 288.54 41.88 277.14 47.18
  Q 289.27 34.89 301.29 22.95
  Q 311.63 12.69 315.82 10.22
  C 331.81 0.79 351.06 3.37 364.32 16.44
  Q 373.60 25.58 382.98 34.96
  Z"
/>
<path fill="#091e33" d="
  M 471.28 40.68
  Q 488.74 57.98 506.60 75.90
  Q 510.67 79.99 512.00 84.81
  L 512.00 90.85
  Q 510.51 95.80 507.66 98.66
  Q 492.73 113.60 477.80 128.51
  Q 476.69 128.09 476.30 127.70
  Q 453.82 105.07 430.82 82.54
  Q 430.11 81.85 430.81 81.15
  L 471.28 40.68
  Z"
/>
<path fill="#c0ec88" d="
  M 379.34 132.68
  L 323.71 188.30
  Q 323.19 188.82 322.63 188.34
  Q 307.83 175.54 288.89 180.40
  Q 278.60 183.04 268.30 185.92
  Q 267.45 186.15 267.19 185.31
  C 264.19 175.54 251.89 171.69 243.82 177.95
  Q 240.80 180.29 238.50 184.46
  Q 234.67 191.38 230.29 198.53
  Q 227.45 203.17 226.77 206.86
  C 225.28 214.82 229.91 220.31 236.79 224.26
  Q 244.96 228.95 252.53 233.39
  C 263.03 239.54 275.18 233.38 276.01 221.17
  C 276.12 219.44 275.62 217.75 275.26 216.01
  Q 275.13 215.41 275.73 215.25
  Q 286.88 212.25 297.59 209.44
  Q 299.54 208.92 300.91 209.99
  A 0.69 0.69 0.0 0 1 300.98 211.02
  L 245.63 266.37
  A 0.54 0.54 0.0 0 1 244.74 266.17
  Q 242.09 259.00 235.35 256.57
  C 231.43 255.16 226.51 255.31 222.96 257.74
  Q 221.78 258.55 220.67 259.25
  Q 220.20 259.55 219.80 259.15
  Q 212.47 251.83 203.82 243.16
  C 201.97 241.31 201.61 238.64 202.88 236.35
  C 204.03 234.27 206.25 233.96 208.20 233.08
  C 221.47 227.13 219.64 208.06 205.51 204.60
  C 198.86 202.97 190.27 207.10 185.23 211.20
  C 173.05 221.09 168.53 237.34 174.22 252.21
  Q 176.88 259.16 183.24 265.48
  Q 190.95 273.13 198.39 280.55
  Q 198.79 280.95 198.50 281.43
  C 197.61 282.86 196.53 284.21 195.92 285.78
  C 192.72 293.97 197.21 302.69 205.47 305.46
  A 0.53 0.52 -58.1 0 1 205.67 306.33
  L 128.21 383.79
  Q 89.76 345.36 51.81 307.39
  Q 43.57 299.15 42.42 296.99
  Q 38.85 290.26 42.64 281.71
  L 277.14 47.18
  Q 288.54 41.88 296.21 49.55
  Q 337.78 91.11 379.34 132.68
  Z"
/>
<path fill="#8fd85e" d="
  M 379.34 132.68
  Q 379.50 132.67 379.66 132.74
  Q 419.43 172.53 459.21 212.31
  Q 465.07 218.16 466.21 221.48
  Q 468.26 227.43 465.25 234.88
  L 230.61 469.35
  Q 219.11 474.93 211.08 466.91
  Q 169.46 425.36 128.06 383.90
  Q 128.13 383.84 128.21 383.79
  L 205.67 306.33
  A 0.53 0.52 -58.1 0 0 205.47 305.46
  C 197.21 302.69 192.72 293.97 195.92 285.78
  C 196.53 284.21 197.61 282.86 198.50 281.43
  Q 198.79 280.95 198.39 280.55
  Q 190.95 273.13 183.24 265.48
  Q 176.88 259.16 174.22 252.21
  C 168.53 237.34 173.05 221.09 185.23 211.20
  C 190.27 207.10 198.86 202.97 205.51 204.60
  C 219.64 208.06 221.47 227.13 208.20 233.08
  C 206.25 233.96 204.03 234.27 202.88 236.35
  C 201.61 238.64 201.97 241.31 203.82 243.16
  Q 212.47 251.83 219.80 259.15
  Q 220.20 259.55 220.67 259.25
  Q 221.78 258.55 222.96 257.74
  C 226.51 255.31 231.43 255.16 235.35 256.57
  Q 242.09 259.00 244.74 266.17
  A 0.54 0.54 0.0 0 0 245.63 266.37
  L 300.98 211.02
  A 0.69 0.69 0.0 0 0 300.91 209.99
  Q 299.54 208.92 297.59 209.44
  Q 286.88 212.25 275.73 215.25
  Q 275.13 215.41 275.26 216.01
  C 275.62 217.75 276.12 219.44 276.01 221.17
  C 275.18 233.38 263.03 239.54 252.53 233.39
  Q 244.96 228.95 236.79 224.26
  C 229.91 220.31 225.28 214.82 226.77 206.86
  Q 227.45 203.17 230.29 198.53
  Q 234.67 191.38 238.50 184.46
  Q 240.80 180.29 243.82 177.95
  C 251.89 171.69 264.19 175.54 267.19 185.31
  Q 267.45 186.15 268.30 185.92
  Q 278.60 183.04 288.89 180.40
  Q 307.83 175.54 322.63 188.34
  Q 323.19 188.82 323.71 188.30
  L 379.34 132.68
  Z
  M 332.06 226.33
  C 337.08 213.94 333.46 199.12 323.63 189.36
  A 0.72 0.71 -45.3 0 0 322.61 189.37
  L 302.15 209.86
  A 0.59 0.58 -45.3 0 0 302.15 210.69
  C 305.21 213.81 303.31 216.69 303.39 220.29
  C 303.61 230.07 312.59 237.06 322.01 234.65
  Q 329.46 232.76 332.06 226.33
  Z
  M 314.72 294.11
  C 326.10 298.68 337.72 289.33 335.46 277.35
  Q 334.81 273.86 330.37 266.71
  Q 326.18 259.93 322.81 253.81
  C 318.96 246.82 314.08 242.54 305.69 243.39
  Q 302.45 243.72 292.97 249.47
  Q 285.60 253.94 278.50 258.07
  C 269.14 263.52 268.46 275.70 276.30 282.77
  C 278.55 284.79 281.33 285.61 284.26 286.02
  A 0.69 0.68 -78.9 0 1 284.83 286.88
  Q 282.13 297.09 279.37 307.23
  C 278.46 310.60 274.19 312.51 271.21 310.33
  C 269.52 309.10 268.08 307.70 266.16 306.80
  C 253.46 300.80 239.81 313.96 245.94 326.76
  Q 247.91 330.87 252.63 334.34
  C 264.71 343.23 280.21 343.92 292.86 336.24
  Q 305.02 328.85 309.01 313.80
  Q 311.65 303.87 314.22 294.36
  A 0.37 0.37 0.0 0 1 314.72 294.11
  Z
  M 235.53 305.22
  C 242.00 302.86 245.41 296.92 245.47 290.01
  Q 245.58 279.27 245.40 269.25
  Q 245.35 266.60 243.48 268.47
  L 207.82 304.13
  Q 205.79 306.16 208.66 306.19
  Q 217.58 306.28 225.85 306.23
  Q 232.88 306.19 235.53 305.22
  Z"
/>
<path fill="#57a25e" d="
  M 323.63 189.36
  C 333.46 199.12 337.08 213.94 332.06 226.33
  Q 329.46 232.76 322.01 234.65
  C 312.59 237.06 303.61 230.07 303.39 220.29
  C 303.31 216.69 305.21 213.81 302.15 210.69
  A 0.59 0.58 -45.3 0 1 302.15 209.86
  L 322.61 189.37
  A 0.72 0.71 -45.3 0 1 323.63 189.36
  Z"
/>
<path fill="#57a25e" d="
  M 314.72 294.11
  A 0.37 0.37 0.0 0 0 314.22 294.36
  Q 311.65 303.87 309.01 313.80
  Q 305.02 328.85 292.86 336.24
  C 280.21 343.92 264.71 343.23 252.63 334.34
  Q 247.91 330.87 245.94 326.76
  C 239.81 313.96 253.46 300.80 266.16 306.80
  C 268.08 307.70 269.52 309.10 271.21 310.33
  C 274.19 312.51 278.46 310.60 279.37 307.23
  Q 282.13 297.09 284.83 286.88
  A 0.69 0.68 -78.9 0 0 284.26 286.02
  C 281.33 285.61 278.55 284.79 276.30 282.77
  C 268.46 275.70 269.14 263.52 278.50 258.07
  Q 285.60 253.94 292.97 249.47
  Q 302.45 243.72 305.69 243.39
  C 314.08 242.54 318.96 246.82 322.81 253.81
  Q 326.18 259.93 330.37 266.71
  Q 334.81 273.86 335.46 277.35
  C 337.72 289.33 326.10 298.68 314.72 294.11
  Z"
/>
<path fill="#57a25e" d="
  M 245.47 290.01
  C 245.41 296.92 242.00 302.86 235.53 305.22
  Q 232.88 306.19 225.85 306.23
  Q 217.58 306.28 208.66 306.19
  Q 205.79 306.16 207.82 304.13
  L 243.48 268.47
  Q 245.35 266.60 245.40 269.25
  Q 245.58 279.27 245.47 290.01
  Z"
/>
<path fill="#1a6ca7" d="
  M 42.64 281.71
  Q 38.85 290.26 42.42 296.99
  Q 43.57 299.15 51.81 307.39
  Q 89.76 345.36 128.21 383.79
  Q 128.13 383.84 128.06 383.90
  L 77.48 434.51
  Q 44.47 401.30 11.32 368.18
  Q 1.04 357.91 0.00 341.87
  L 0.00 339.25
  Q 1.01 323.76 11.30 313.03
  Q 19.98 303.99 42.64 281.71
  Z"
/>
<path fill="#183756" d="
  M 128.06 383.90
  Q 169.46 425.36 211.08 466.91
  Q 219.11 474.93 230.61 469.35
  Q 206.71 493.43 199.75 500.26
  Q 189.62 510.20 175.14 512.00
  L 167.49 512.00
  Q 153.05 510.09 143.05 500.20
  Q 123.87 481.24 77.48 434.51
  L 128.06 383.90
  Z"
/>
</svg>
