<?xml version="1.0" encoding="UTF-8" standalone="no"?>
<!DOCTYPE svg PUBLIC "-//W3C//DTD SVG 1.1//EN" "http://www.w3.org/Graphics/SVG/1.1/DTD/svg11.dtd">
<svg xmlns="http://www.w3.org/2000/svg" version="1.1" viewBox="0.00 0.00 512.00 512.00">
<g stroke-width="2.00" fill="none" stroke-linecap="butt">
<path stroke="#8cb1dd" vector-effect="non-scaling-stroke" d="
  M 281.57 68.29
  L 230.44 68.29"
/>
<path stroke="#cde3f9" vector-effect="non-scaling-stroke" d="
  M 298.1795 202.1611
  A 8.41 8.41 0.0 0 0 287.6977 196.5408
  L 202.2856 222.3282
  A 8.41 8.41 0.0 0 0 196.6653 232.8100
  L 196.7405 233.0589
  A 8.41 8.41 0.0 0 0 207.2223 238.6792
  L 292.6344 212.8918
  A 8.41 8.41 0.0 0 0 298.2547 202.4100
  L 298.1795 202.1611"
/>
<path stroke="#cde3f9" vector-effect="non-scaling-stroke" d="
  M 272.7950 300.0893
  A 8.30 8.30 0.0 0 0 266.2822 290.3238
  L 223.0567 281.6865
  A 8.30 8.30 0.0 0 0 213.2913 288.1993
  L 213.2050 288.6307
  A 8.30 8.30 0.0 0 0 219.7178 298.3962
  L 262.9433 307.0335
  A 8.30 8.30 0.0 0 0 272.7087 300.5207
  L 272.7950 300.0893"
/>
<path stroke="#cde3f9" vector-effect="non-scaling-stroke" d="
  M 307.2384 348.6327
  A 8.36 8.36 0.0 0 0 297.9092 341.3701
  L 229.2597 349.9209
  A 8.36 8.36 0.0 0 0 221.9971 359.2501
  L 222.0416 359.6073
  A 8.36 8.36 0.0 0 0 231.3708 366.8699
  L 300.0203 358.3191
  A 8.36 8.36 0.0 0 0 307.2829 348.9899
  L 307.2384 348.6327"
/>
</g>
<path fill="#4078bc" d="
  M 281.57 68.29
  L 230.44 68.29
  Q 227.56 68.22 224.65 68.25
  Q 220.72 68.30 218.92 67.67
  Q 213.27 65.72 213.33 58.43
  Q 213.44 46.12 213.27 31.21
  Q 213.17 22.40 214.51 19.32
  C 217.89 11.55 224.31 8.37 232.64 8.45
  Q 254.38 8.66 277.68 8.44
  Q 284.48 8.37 287.96 9.82
  Q 295.12 12.79 297.56 19.79
  Q 298.92 23.69 298.75 31.20
  Q 298.44 44.32 298.75 56.69
  Q 298.85 60.73 297.81 63.29
  Q 295.92 67.98 289.24 68.11
  Q 285.41 68.18 281.57 68.29
  Z"
/>
<path fill="#d7e9fd" d="
  M 281.57 68.29
  L 281.61 93.38
  Q 281.61 93.87 282.07 94.02
  C 323.18 107.83 351.81 142.57 357.45 185.51
  Q 358.56 194.01 358.11 200.33
  C 357.93 202.91 356.06 205.07 354.25 206.79
  Q 341.87 218.57 328.05 231.55
  C 324.04 235.32 322.66 240.71 327.38 244.80
  Q 337.76 253.79 347.92 262.14
  Q 351.78 265.32 352.88 267.85
  C 354.57 271.73 353.39 275.76 350.55 278.73
  Q 339.82 289.96 328.16 302.04
  C 323.96 306.39 323.63 312.30 328.15 316.65
  Q 337.70 325.85 346.90 334.81
  C 348.92 336.77 349.81 339.27 349.81 342.06
  Q 349.82 350.63 349.78 358.56
  Q 349.75 364.50 351.62 368.14
  C 355.37 375.48 358.34 381.43 358.35 389.98
  Q 358.40 427.56 358.38 462.79
  Q 358.37 483.38 342.93 495.43
  C 324.47 509.85 299.98 503.75 288.79 483.89
  A 0.28 0.28 0.0 0 0 288.31 483.89
  Q 279.12 500.18 261.34 503.02
  C 245.95 505.47 231.17 497.65 223.71 483.98
  Q 223.39 483.39 223.06 483.98
  C 219.23 491.01 213.19 496.85 205.94 500.08
  Q 187.90 508.12 170.93 496.74
  Q 159.17 488.85 154.98 474.50
  Q 153.41 469.10 153.53 455.49
  Q 153.75 431.08 153.59 405.44
  C 153.55 398.10 157.04 393.93 163.00 389.34
  Q 171.15 383.07 179.81 376.39
  Q 183.61 373.45 184.44 371.52
  C 186.05 367.74 184.26 364.15 180.82 362.33
  Q 173.29 358.35 165.73 354.50
  C 158.57 350.86 157.88 343.46 163.43 337.98
  Q 166.63 334.81 169.90 331.26
  C 173.91 326.90 173.30 322.37 170.23 317.76
  Q 165.64 310.89 161.08 303.69
  C 157.89 298.68 157.94 294.17 162.34 289.94
  Q 168.49 284.01 174.42 277.86
  C 177.76 274.39 177.88 270.22 175.82 266.16
  Q 167.45 249.71 160.74 236.03
  C 154.59 223.48 153.07 210.35 153.65 195.97
  C 155.55 148.55 185.19 109.44 229.93 94.00
  Q 230.38 93.85 230.39 93.37
  L 230.44 68.29
  L 281.57 68.29
  Z
  M 298.1795 202.1611
  A 8.41 8.41 0.0 0 0 287.6977 196.5408
  L 202.2856 222.3282
  A 8.41 8.41 0.0 0 0 196.6653 232.8100
  L 196.7405 233.0589
  A 8.41 8.41 0.0 0 0 207.2223 238.6792
  L 292.6344 212.8918
  A 8.41 8.41 0.0 0 0 298.2547 202.4100
  L 298.1795 202.1611
  Z
  M 272.7950 300.0893
  A 8.30 8.30 0.0 0 0 266.2822 290.3238
  L 223.0567 281.6865
  A 8.30 8.30 0.0 0 0 213.2913 288.1993
  L 213.2050 288.6307
  A 8.30 8.30 0.0 0 0 219.7178 298.3962
  L 262.9433 307.0335
  A 8.30 8.30 0.0 0 0 272.7087 300.5207
  L 272.7950 300.0893
  Z
  M 307.2384 348.6327
  A 8.36 8.36 0.0 0 0 297.9092 341.3701
  L 229.2597 349.9209
  A 8.36 8.36 0.0 0 0 221.9971 359.2501
  L 222.0416 359.6073
  A 8.36 8.36 0.0 0 0 231.3708 366.8699
  L 300.0203 358.3191
  A 8.36 8.36 0.0 0 0 307.2829 348.9899
  L 307.2384 348.6327
  Z"
/>
<rect fill="#c3ddf4" x="-53.02" y="-8.54" transform="translate(247.46,217.61) rotate(-16.8)" width="106.04" height="17.08" rx="8.41"/>
<rect fill="#c3ddf4" x="-30.34" y="-8.52" transform="translate(243.00,294.36) rotate(11.3)" width="60.68" height="17.04" rx="8.30"/>
<rect fill="#c3ddf4" x="-42.95" y="-8.54" transform="translate(264.64,354.12) rotate(-7.1)" width="85.90" height="17.08" rx="8.36"/>
</svg>
