<?xml version="1.0" encoding="UTF-8" standalone="no"?>
<!DOCTYPE svg PUBLIC "-//W3C//DTD SVG 1.1//EN" "http://www.w3.org/Graphics/SVG/1.1/DTD/svg11.dtd">
<svg xmlns="http://www.w3.org/2000/svg" version="1.1" viewBox="0.00 0.00 512.00 512.00">
<g stroke-width="2.00" fill="none" stroke-linecap="butt">
<path stroke="#44ca6a" vector-effect="non-scaling-stroke" d="
  M 290.13 76.79
  L 221.89 76.81"
/>
<path stroke="#5ee885" vector-effect="non-scaling-stroke" d="
  M 170.71 315.70
  A 8.41 8.41 0.0 0 0 162.30 307.29
  L 162.00 307.29
  A 8.41 8.41 0.0 0 0 153.59 315.70
  L 153.59 409.64
  A 8.41 8.41 0.0 0 0 162.00 418.05
  L 162.30 418.05
  A 8.41 8.41 0.0 0 0 170.71 409.64
  L 170.71 315.70"
/>
</g>
<path fill="#40bc60" d="
  M 290.13 76.79
  L 221.89 76.81
  Q 219.06 76.74 216.12 76.76
  Q 212.10 76.80 210.43 76.18
  C 207.34 75.04 204.95 71.87 204.96 68.57
  Q 205.02 46.98 204.90 18.58
  C 204.88 12.26 208.06 8.51 214.86 8.51
  Q 257.10 8.54 298.13 8.53
  C 303.85 8.53 307.19 12.43 307.20 17.98
  Q 307.23 41.33 307.19 67.34
  Q 307.19 73.65 302.49 75.84
  C 299.26 77.35 294.06 76.75 290.13 76.79
  Z"
/>
<path fill="#48d874" d="
  M 290.13 76.79
  Q 292.39 143.38 312.97 206.34
  Q 317.67 220.72 319.72 225.15
  Q 327.87 242.79 345.04 253.18
  C 350.04 256.21 355.93 258.01 360.89 260.95
  Q 385.68 275.65 391.37 303.82
  Q 392.58 309.84 392.56 321.14
  Q 392.43 406.96 392.52 495.44
  C 392.52 498.56 389.81 501.95 386.91 502.84
  Q 384.67 503.53 382.10 503.52
  Q 367.33 503.43 354.67 503.47
  C 351.44 503.48 348.69 502.00 346.80 499.43
  Q 339.38 489.36 331.17 478.56
  C 327.10 473.21 320.47 474.28 316.78 479.26
  Q 309.19 489.53 301.38 499.80
  Q 298.59 503.47 293.65 503.47
  Q 286.02 503.48 278.35 503.46
  Q 273.11 503.45 270.45 499.01
  Q 262.38 485.54 254.01 471.65
  C 250.68 466.11 243.54 465.66 239.42 470.79
  Q 230.12 482.39 220.34 494.67
  C 216.31 499.73 209.91 499.25 206.03 494.33
  Q 196.88 482.74 188.37 472.31
  C 185.12 468.33 179.10 467.81 175.55 471.66
  Q 174.00 473.34 172.91 476.20
  Q 168.88 486.78 164.08 498.30
  C 162.47 502.16 159.01 503.52 155.11 503.50
  Q 141.58 503.46 129.05 503.46
  Q 122.73 503.46 120.59 499.07
  Q 119.44 496.73 119.44 492.16
  Q 119.50 399.15 119.51 313.25
  Q 119.51 304.47 123.30 294.01
  C 128.98 278.32 141.13 264.80 156.94 258.09
  C 176.15 249.94 188.54 237.44 195.68 216.48
  Q 219.40 146.86 221.89 76.81
  L 290.13 76.79
  Z
  M 170.71 315.70
  A 8.41 8.41 0.0 0 0 162.30 307.29
  L 162.00 307.29
  A 8.41 8.41 0.0 0 0 153.59 315.70
  L 153.59 409.64
  A 8.41 8.41 0.0 0 0 162.00 418.05
  L 162.30 418.05
  A 8.41 8.41 0.0 0 0 170.71 409.64
  L 170.71 315.70
  Z"
/>
<rect fill="#74f796" x="153.59" y="307.29" width="17.12" height="110.76" rx="8.41"/>
</svg>
