<svg width="99" height="100" viewBox="0 0 99 100" fill="none" xmlns="http://www.w3.org/2000/svg">
<g clip-path="url(#clip0_591_7188)">
<path d="M9.18066 21.3073L30.1524 21.3325C30.1924 21.3338 30.2124 21.3138 30.2124 21.2725C30.2137 14.4353 30.2137 7.59429 30.2124 0.749365C30.2124 0.708115 30.2033 0.673311 30.1853 0.644951C30.1608 0.60499 30.135 0.578564 30.108 0.565674" stroke="#E1E5EA" stroke-width="0.386719"/>
<path d="M53.9647 29.8905C54.2199 30.4847 54.5319 31.0294 54.9005 31.5244C54.922 31.5535 54.9348 31.5881 54.9376 31.6243C54.9403 31.6606 54.9328 31.6969 54.916 31.7293L52.9495 35.4631C52.9147 35.5288 52.9257 35.5862 52.9824 35.6352L56.954 39.0054C57.0056 39.048 57.0584 39.0499 57.1126 39.0112L60.4635 36.6406C60.5112 36.6058 60.5634 36.5968 60.6201 36.6136L62.4996 37.1859C62.5283 37.1949 62.5544 37.2104 62.5759 37.2312C62.5974 37.252 62.6137 37.2776 62.6233 37.3058L64.0039 41.2465C64.014 41.2747 64.033 41.299 64.0582 41.3154C64.0833 41.3318 64.1132 41.3395 64.1431 41.3373L69.3271 40.9313C69.3469 40.9298 69.3657 40.9215 69.3804 40.9079C69.3951 40.8942 69.4049 40.8759 69.4083 40.8559L70 36.7044C70.0046 36.6715 70.018 36.6403 70.0387 36.6138C70.0593 36.5874 70.0867 36.5666 70.1179 36.5536C70.6928 36.3139 71.242 36.0026 71.7653 35.6197C71.8285 35.5746 71.8949 35.5688 71.9645 35.6023L75.7002 37.3773C75.7263 37.3895 75.7555 37.3928 75.7835 37.3869C75.8114 37.381 75.8365 37.3661 75.8549 37.3445L79.2542 33.3477C79.2672 33.333 79.2749 33.3143 79.276 33.2946C79.277 33.2749 79.2714 33.2555 79.26 33.2395L76.8797 29.8653C76.8618 29.8408 76.8498 29.8124 76.8448 29.7825C76.8397 29.7526 76.8418 29.7221 76.8507 29.6932L77.4114 27.8157C77.4295 27.7551 77.4688 27.7158 77.5294 27.6978L81.6479 26.5241C81.7304 26.4996 81.7685 26.4448 81.762 26.3597L81.3656 21.1912C81.3641 21.1719 81.3562 21.1537 81.3432 21.1397C81.3302 21.1256 81.3129 21.1165 81.2941 21.1139L77.1601 20.5241C77.0827 20.5138 77.0273 20.4739 76.9938 20.4043L76.0599 18.4919C76.0315 18.4326 76.0309 18.3733 76.0579 18.314L77.802 14.6402C77.8381 14.5642 77.8239 14.4984 77.7595 14.443L73.8072 11.0824C73.7582 11.0399 73.7073 11.0373 73.6545 11.0747L70.3364 13.4143C70.2436 13.4801 70.1463 13.4871 70.0444 13.4356C69.4708 13.1455 68.8772 12.9554 68.2636 12.8652C68.1888 12.8536 68.1392 12.8123 68.1147 12.7414L66.7477 8.83556C66.7283 8.78142 66.6897 8.75629 66.6317 8.76015L61.44 9.15654C61.3819 9.1617 61.3491 9.19263 61.3413 9.24935L60.7535 13.3679C60.7419 13.4478 60.6994 13.5033 60.6259 13.5342C60.0639 13.7701 59.5257 14.0775 59.0114 14.4565C58.9794 14.4804 58.9415 14.4951 58.9019 14.4988C58.8623 14.5026 58.8226 14.4953 58.7871 14.4778L55.0398 12.7047C54.9882 12.6802 54.9437 12.6899 54.9063 12.7337L51.5032 16.7382C51.471 16.7755 51.4691 16.8142 51.4974 16.8542L53.8622 20.2032C53.9151 20.2779 53.9221 20.3566 53.8835 20.4391C53.6186 21.0037 53.3595 21.6418 53.3092 22.2721C53.304 22.334 53.2718 22.3752 53.2125 22.3959L49.2719 23.7764C49.2469 23.7853 49.2256 23.8021 49.2112 23.8242C49.1969 23.8462 49.1903 23.8723 49.1926 23.8983L49.5909 29.0726C49.5961 29.1383 49.6309 29.1757 49.6953 29.1847L53.7984 29.7628C53.835 29.7681 53.8696 29.7827 53.8987 29.8051C53.9279 29.8274 53.9506 29.8568 53.9647 29.8905Z" stroke="#9AA7AF" stroke-width="0.386719"/>
<path d="M46.2998 31.5284C46.2998 31.5043 46.2903 31.4812 46.2732 31.4641C46.2562 31.4471 46.2331 31.4375 46.209 31.4375H17.5106C17.4865 31.4375 17.4633 31.4471 17.4463 31.4641C17.4293 31.4812 17.4197 31.5043 17.4197 31.5284V35.2641C17.4197 35.2882 17.4293 35.3113 17.4463 35.3283C17.4633 35.3454 17.4865 35.355 17.5106 35.355H46.209C46.2331 35.355 46.2562 35.3454 46.2732 35.3283C46.2903 35.3113 46.2998 35.2882 46.2998 35.2641V31.5284Z" stroke="#F3B2A7" stroke-width="0.386719"/>
<path d="M46.1103 44.2282C46.1585 44.2282 46.2047 44.2091 46.2388 44.175C46.2729 44.1409 46.2921 44.0947 46.2921 44.0465L46.2882 40.4925C46.2882 40.4687 46.2835 40.445 46.2744 40.423C46.2652 40.4009 46.2518 40.3809 46.235 40.364C46.2181 40.3471 46.1981 40.3337 46.176 40.3246C46.1539 40.3155 46.1303 40.3108 46.1064 40.3108L17.5975 40.3088C17.5735 40.3088 17.5497 40.3136 17.5275 40.3229C17.5054 40.3321 17.4852 40.3457 17.4683 40.3628C17.4514 40.3798 17.4381 40.4001 17.4291 40.4224C17.42 40.4447 17.4155 40.4685 17.4158 40.4925L17.4448 44.0368C17.4453 44.0847 17.4647 44.1304 17.4987 44.1641C17.5327 44.1977 17.5787 44.2166 17.6265 44.2166L46.1103 44.2282Z" stroke="#E1E5EA" stroke-width="0.386719"/>
<path d="M62.3835 49.2652C62.3835 49.2416 62.3741 49.219 62.3575 49.2023C62.3408 49.1856 62.3182 49.1763 62.2946 49.1763H17.5125C17.4889 49.1763 17.4663 49.1856 17.4496 49.2023C17.433 49.219 17.4236 49.2416 17.4236 49.2652V53.0048C17.4236 53.0284 17.433 53.051 17.4496 53.0677C17.4663 53.0844 17.4889 53.0937 17.5125 53.0937H62.2946C62.3182 53.0937 62.3408 53.0844 62.3575 53.0677C62.3741 53.051 62.3835 53.0284 62.3835 53.0048V49.2652Z" stroke="#E1E5EA" stroke-width="0.386719"/>
<path d="M77.2413 54.3855C77.2413 54.3716 77.2358 54.3583 77.226 54.3485C77.2162 54.3388 77.2029 54.3333 77.1891 54.3333H68.2133C68.1995 54.3333 68.1862 54.3388 68.1764 54.3485C68.1666 54.3583 68.1611 54.3716 68.1611 54.3855V91.1895C68.1611 91.2033 68.1666 91.2166 68.1764 91.2264C68.1862 91.2362 68.1995 91.2417 68.2133 91.2417H77.1891C77.2029 91.2417 77.2162 91.2362 77.226 91.2264C77.2358 91.2166 77.2413 91.2033 77.2413 91.1895V54.3855Z" stroke="#BFE5F6" stroke-width="0.386719"/>
<path d="M37.2217 91.1546C37.2217 91.1671 37.2241 91.1794 37.2289 91.1909C37.2337 91.2024 37.2406 91.2129 37.2494 91.2216C37.2582 91.2304 37.2687 91.2374 37.2802 91.2422C37.2917 91.2469 37.304 91.2494 37.3164 91.2494L46.1994 91.2397C46.2245 91.2397 46.2486 91.2297 46.2664 91.212C46.2841 91.1942 46.2941 91.1701 46.2941 91.145L46.298 61.0254C46.298 61.0003 46.288 60.9762 46.2702 60.9584C46.2524 60.9406 46.2283 60.9306 46.2032 60.9306L37.3164 60.9287C37.2913 60.9287 37.2672 60.9387 37.2494 60.9565C37.2317 60.9742 37.2217 60.9983 37.2217 61.0235V91.1546Z" stroke="#F3B2A7" stroke-width="0.386719"/>
<path d="M61.7571 69.2392C61.7571 69.2248 61.7514 69.2111 61.7412 69.2009C61.7311 69.1908 61.7173 69.1851 61.7029 69.1851H52.7465C52.7322 69.1851 52.7184 69.1908 52.7082 69.2009C52.6981 69.2111 52.6924 69.2248 52.6924 69.2392V91.1855C52.6924 91.1998 52.6981 91.2136 52.7082 91.2238C52.7184 91.2339 52.7322 91.2396 52.7465 91.2396H61.7029C61.7173 91.2396 61.7311 91.2339 61.7412 91.2238C61.7514 91.2136 61.7571 91.1998 61.7571 91.1855V69.2392Z" stroke="#F9E2A8" stroke-width="0.386719"/>
<path d="M30.8273 75.6472C30.8273 75.6277 30.8196 75.609 30.8058 75.5953C30.792 75.5815 30.7733 75.5737 30.7538 75.5737H21.8284C21.8089 75.5737 21.7902 75.5815 21.7764 75.5953C21.7626 75.609 21.7549 75.6277 21.7549 75.6472V91.174C21.7549 91.1935 21.7626 91.2121 21.7764 91.2259C21.7902 91.2397 21.8089 91.2474 21.8284 91.2474H30.7538C30.7733 91.2474 30.792 91.2397 30.8058 91.2259C30.8196 91.2121 30.8273 91.1935 30.8273 91.174V75.6472Z" stroke="#ADDDD6" stroke-width="0.386719"/>
<path d="M73.7473 25.0354C73.7473 22.8492 72.8788 20.7526 71.333 19.2068C69.7872 17.6609 67.6905 16.7925 65.5044 16.7925C63.3182 16.7925 61.2216 17.6609 59.6758 19.2068C58.1299 20.7526 57.2615 22.8492 57.2615 25.0354C57.2615 26.1179 57.4747 27.1897 57.8889 28.1898C58.3032 29.1899 58.9103 30.0986 59.6758 30.864C61.2216 32.4099 63.3182 33.2783 65.5044 33.2783C66.5869 33.2783 67.6587 33.0651 68.6588 32.6508C69.6589 32.2366 70.5676 31.6294 71.333 30.864C72.0984 30.0986 72.7056 29.1899 73.1198 28.1898C73.5341 27.1897 73.7473 26.1179 73.7473 25.0354Z" stroke="#3B5265" stroke-width="0.386719"/>
<path d="M65.2308 29.3446C65.8008 29.3755 66.3714 29.2921 66.91 29.0992C67.4486 28.9063 67.9446 28.6077 68.3698 28.2204C68.795 27.8331 69.141 27.3647 69.3881 26.8419C69.6352 26.3192 69.7785 25.7523 69.8098 25.1737C69.8731 24.0052 69.4765 22.8597 68.7073 21.9893C67.9381 21.119 66.8592 20.595 65.7081 20.5326C65.1381 20.5018 64.5675 20.5852 64.0289 20.7781C63.4904 20.971 62.9943 21.2696 62.5691 21.6569C62.1439 22.0442 61.7979 22.5126 61.5508 23.0354C61.3037 23.5581 61.1605 24.125 61.1291 24.7036C61.0658 25.8721 61.4624 27.0176 62.2316 27.8879C63.0009 28.7583 64.0797 29.2823 65.2308 29.3446Z" stroke="#302F2F" stroke-width="0.386719"/>
<path d="M30.1776 0.5H84.3027C85.7967 0.665 87.0491 1.23283 88.0597 2.2035C89.2276 3.32498 89.8347 4.87766 89.8328 6.47674C89.7967 35.4278 89.7954 64.1649 89.8289 92.688C89.8289 93.7269 89.7381 94.5384 89.5563 95.1223C88.8892 97.2512 87.2225 98.9277 84.9949 99.3434C84.7075 99.3962 84.4207 99.4484 84.1345 99.5H14.8403C14.0759 99.3775 13.5912 99.2789 13.3862 99.2042C11.3405 98.4488 10.0314 97.1056 9.4591 95.1746C9.27863 94.561 9.1884 93.6322 9.1884 92.3882C9.18324 68.7494 9.18066 45.0558 9.18066 21.3074L30.1524 21.3325C30.1924 21.3338 30.2124 21.3138 30.2124 21.2726C30.2137 14.4354 30.2137 7.59436 30.2124 0.749434C30.2124 0.708184 30.2033 0.673379 30.1853 0.64502C30.1608 0.605059 30.135 0.578633 30.108 0.565742C30.1402 0.554141 30.1634 0.532227 30.1776 0.5ZM53.9646 29.8906C54.2199 30.4849 54.5318 31.0295 54.9005 31.5245C54.922 31.5536 54.9348 31.5883 54.9375 31.6245C54.9403 31.6607 54.9328 31.6971 54.916 31.7295L52.9495 35.4632C52.9147 35.529 52.9257 35.5863 52.9824 35.6353L56.954 39.0056C57.0055 39.0481 57.0584 39.0501 57.1125 39.0114L60.4634 36.6408C60.5111 36.606 60.5633 36.597 60.6201 36.6137L62.4995 37.1861C62.5282 37.195 62.5544 37.2105 62.5759 37.2314C62.5974 37.2522 62.6136 37.2778 62.6233 37.306L64.0039 41.2466C64.0139 41.2749 64.033 41.2991 64.0581 41.3155C64.0833 41.3319 64.1131 41.3397 64.1431 41.3375L69.327 40.9314C69.3469 40.9299 69.3656 40.9217 69.3803 40.908C69.3951 40.8944 69.4049 40.8761 69.4082 40.856L69.9999 36.7046C70.0046 36.6717 70.0179 36.6404 70.0386 36.614C70.0593 36.5875 70.0866 36.5668 70.1179 36.5538C70.6928 36.314 71.2419 36.0027 71.7653 35.6199C71.8285 35.5747 71.8948 35.5689 71.9645 35.6025L75.7002 37.3775C75.7262 37.3896 75.7555 37.393 75.7834 37.3871C75.8114 37.3811 75.8365 37.3662 75.8548 37.3446L79.2541 33.3479C79.2672 33.3332 79.2749 33.3144 79.2759 33.2948C79.277 33.2751 79.2713 33.2556 79.2599 33.2396L76.8797 29.8655C76.8617 29.8409 76.8497 29.8126 76.8447 29.7827C76.8397 29.7528 76.8417 29.7222 76.8506 29.6934L77.4114 27.8159C77.4294 27.7553 77.4688 27.716 77.5293 27.6979L81.6479 26.5242C81.7304 26.4997 81.7684 26.445 81.762 26.3599L81.3656 21.1914C81.3641 21.1721 81.3561 21.1539 81.3431 21.1398C81.3301 21.1258 81.3128 21.1167 81.294 21.114L77.16 20.5243C77.0827 20.514 77.0273 20.474 76.9937 20.4044L76.0598 18.4921C76.0314 18.4328 76.0308 18.3735 76.0579 18.3142L77.802 14.6404C77.8381 14.5643 77.8239 14.4986 77.7594 14.4431L73.8072 11.0826C73.7582 11.04 73.7073 11.0374 73.6544 11.0748L70.3364 13.4145C70.2436 13.4802 70.1462 13.4873 70.0444 13.4357C69.4708 13.1457 68.8772 12.9556 68.2636 12.8653C68.1888 12.8537 68.1392 12.8125 68.1147 12.7416L66.7476 8.83572C66.7283 8.78158 66.6896 8.75645 66.6316 8.76031L61.4399 9.1567C61.3819 9.16186 61.349 9.19279 61.3413 9.24951L60.7535 13.3681C60.7419 13.448 60.6993 13.5034 60.6259 13.5344C60.0638 13.7703 59.5256 14.0777 59.0113 14.4567C58.9793 14.4806 58.9415 14.4952 58.9019 14.499C58.8623 14.5027 58.8225 14.4954 58.787 14.4779L55.0397 12.7048C54.9881 12.6804 54.9437 12.69 54.9063 12.7338L51.5032 16.7383C51.4709 16.7757 51.469 16.8144 51.4974 16.8543L53.8622 20.2033C53.915 20.2781 53.9221 20.3567 53.8834 20.4392C53.6185 21.0038 53.3594 21.6419 53.3091 22.2723C53.304 22.3341 53.2718 22.3754 53.2125 22.396L49.2718 23.7766C49.2468 23.7855 49.2255 23.8023 49.2112 23.8243C49.1968 23.8464 49.1903 23.8724 49.1925 23.8984L49.5908 29.0727C49.596 29.1385 49.6308 29.1758 49.6953 29.1849L53.7983 29.763C53.835 29.7683 53.8696 29.7829 53.8987 29.8052C53.9278 29.8276 53.9506 29.857 53.9646 29.8906ZM46.2999 31.5284C46.2999 31.5043 46.2903 31.4812 46.2733 31.4641C46.2562 31.4471 46.2331 31.4375 46.209 31.4375H17.5106C17.4865 31.4375 17.4634 31.4471 17.4463 31.4641C17.4293 31.4812 17.4197 31.5043 17.4197 31.5284V35.2641C17.4197 35.2882 17.4293 35.3113 17.4463 35.3283C17.4634 35.3454 17.4865 35.355 17.5106 35.355H46.209C46.2331 35.355 46.2562 35.3454 46.2733 35.3283C46.2903 35.3113 46.2999 35.2882 46.2999 35.2641V31.5284ZM46.1104 44.2282C46.1586 44.2282 46.2048 44.2091 46.2389 44.175C46.273 44.1409 46.2921 44.0947 46.2921 44.0465L46.2883 40.4925C46.2883 40.4687 46.2836 40.445 46.2744 40.423C46.2653 40.4009 46.2519 40.3809 46.235 40.364C46.2182 40.3471 46.1981 40.3337 46.1761 40.3246C46.154 40.3155 46.1304 40.3108 46.1065 40.3108L17.5976 40.3088C17.5736 40.3088 17.5498 40.3136 17.5276 40.3228C17.5054 40.3321 17.4853 40.3457 17.4684 40.3627C17.4515 40.3798 17.4381 40.4001 17.4291 40.4224C17.4201 40.4446 17.4156 40.4685 17.4158 40.4925L17.4448 44.0368C17.4454 44.0847 17.4647 44.1304 17.4988 44.1641C17.5328 44.1977 17.5787 44.2166 17.6266 44.2166L46.1104 44.2282ZM62.3835 49.2652C62.3835 49.2416 62.3741 49.219 62.3574 49.2023C62.3408 49.1857 62.3181 49.1763 62.2946 49.1763H17.5125C17.4889 49.1763 17.4663 49.1857 17.4496 49.2023C17.4329 49.219 17.4236 49.2416 17.4236 49.2652V53.0048C17.4236 53.0284 17.4329 53.051 17.4496 53.0677C17.4663 53.0844 17.4889 53.0938 17.5125 53.0938H62.2946C62.3181 53.0938 62.3408 53.0844 62.3574 53.0677C62.3741 53.051 62.3835 53.0284 62.3835 53.0048V49.2652ZM77.2412 54.3854C77.2412 54.3715 77.2357 54.3583 77.2259 54.3485C77.2162 54.3387 77.2029 54.3332 77.189 54.3332H68.2133C68.1994 54.3332 68.1862 54.3387 68.1764 54.3485C68.1666 54.3583 68.1611 54.3715 68.1611 54.3854V91.1894C68.1611 91.2033 68.1666 91.2165 68.1764 91.2263C68.1862 91.2361 68.1994 91.2416 68.2133 91.2416H77.189C77.2029 91.2416 77.2162 91.2361 77.2259 91.2263C77.2357 91.2165 77.2412 91.2033 77.2412 91.1894V54.3854ZM37.2216 91.1546C37.2216 91.1671 37.2241 91.1794 37.2289 91.1909C37.2336 91.2024 37.2406 91.2128 37.2494 91.2216C37.2582 91.2304 37.2686 91.2374 37.2801 91.2421C37.2916 91.2469 37.3039 91.2494 37.3164 91.2494L46.1993 91.2397C46.2244 91.2397 46.2486 91.2297 46.2663 91.2119C46.2841 91.1942 46.2941 91.1701 46.2941 91.1449L46.2979 61.0253C46.2979 61.0002 46.2879 60.9761 46.2702 60.9584C46.2524 60.9406 46.2283 60.9306 46.2032 60.9306L37.3164 60.9287C37.2913 60.9287 37.2672 60.9387 37.2494 60.9564C37.2316 60.9742 37.2216 60.9983 37.2216 61.0234V91.1546ZM61.757 69.2393C61.757 69.2249 61.7513 69.2111 61.7412 69.201C61.731 69.1908 61.7172 69.1851 61.7029 69.1851H52.7465C52.7321 69.1851 52.7183 69.1908 52.7082 69.201C52.698 69.2111 52.6923 69.2249 52.6923 69.2393V91.1855C52.6923 91.1999 52.698 91.2137 52.7082 91.2238C52.7183 91.234 52.7321 91.2397 52.7465 91.2397H61.7029C61.7172 91.2397 61.731 91.234 61.7412 91.2238C61.7513 91.2137 61.757 91.1999 61.757 91.1855V69.2393ZM30.8272 75.6472C30.8272 75.6277 30.8195 75.609 30.8057 75.5952C30.7919 75.5815 30.7733 75.5737 30.7538 75.5737H21.8283C21.8088 75.5737 21.7901 75.5815 21.7763 75.5952C21.7626 75.609 21.7548 75.6277 21.7548 75.6472V91.1739C21.7548 91.1934 21.7626 91.2121 21.7763 91.2259C21.7901 91.2397 21.8088 91.2474 21.8283 91.2474H30.7538C30.7733 91.2474 30.7919 91.2397 30.8057 91.2259C30.8195 91.2121 30.8272 91.1934 30.8272 91.1739V75.6472Z" fill="#F3F3F3"/>
<path d="M30.108 0.565674C30.135 0.578564 30.1608 0.60499 30.1853 0.644951C30.2033 0.673311 30.2124 0.708115 30.2124 0.749365C30.2137 7.59429 30.2137 14.4353 30.2124 21.2725C30.2124 21.3138 30.1924 21.3338 30.1524 21.3325L9.18066 21.3073L30.108 0.565674Z" fill="#CED6E0"/>
<path d="M53.7984 29.7628L49.6953 29.1847C49.6309 29.1757 49.5961 29.1383 49.5909 29.0726L49.1926 23.8983C49.1903 23.8723 49.1969 23.8462 49.2112 23.8242C49.2256 23.8021 49.2469 23.7853 49.2719 23.7764L53.2125 22.3959C53.2718 22.3752 53.304 22.334 53.3092 22.2721C53.3595 21.6418 53.6186 21.0037 53.8835 20.4391C53.9221 20.3566 53.9151 20.2779 53.8622 20.2032L51.4974 16.8542C51.4691 16.8142 51.471 16.7755 51.5032 16.7382L54.9063 12.7337C54.9437 12.6899 54.9882 12.6802 55.0398 12.7047L58.7871 14.4778C58.8226 14.4953 58.8623 14.5026 58.9019 14.4988C58.9415 14.4951 58.9794 14.4804 59.0114 14.4565C59.5257 14.0775 60.0639 13.7701 60.6259 13.5342C60.6994 13.5033 60.7419 13.4478 60.7535 13.3679L61.3413 9.24935C61.3491 9.19263 61.3819 9.1617 61.44 9.15654L66.6317 8.76015C66.6897 8.75629 66.7283 8.78142 66.7477 8.83556L68.1147 12.7414C68.1392 12.8123 68.1888 12.8536 68.2636 12.8652C68.8772 12.9554 69.4708 13.1455 70.0444 13.4356C70.1463 13.4871 70.2436 13.4801 70.3364 13.4143L73.6545 11.0747C73.7073 11.0373 73.7582 11.0399 73.8072 11.0824L77.7595 14.443C77.8239 14.4984 77.8381 14.5642 77.802 14.6402L76.0579 18.314C76.0309 18.3733 76.0315 18.4326 76.0599 18.4919L76.9938 20.4043C77.0273 20.4739 77.0827 20.5138 77.1601 20.5241L81.2941 21.1139C81.3129 21.1165 81.3302 21.1256 81.3432 21.1397C81.3562 21.1537 81.3641 21.1719 81.3656 21.1912L81.762 26.3597C81.7685 26.4448 81.7304 26.4996 81.6479 26.5241L77.5294 27.6978C77.4688 27.7158 77.4295 27.7551 77.4114 27.8157L76.8507 29.6932C76.8418 29.7221 76.8397 29.7526 76.8448 29.7825C76.8498 29.8124 76.8618 29.8408 76.8797 29.8653L79.26 33.2395C79.2714 33.2555 79.277 33.2749 79.276 33.2946C79.2749 33.3143 79.2672 33.333 79.2542 33.3477L75.8549 37.3445C75.8365 37.3661 75.8114 37.381 75.7835 37.3869C75.7555 37.3928 75.7263 37.3895 75.7002 37.3773L71.9645 35.6023C71.8949 35.5688 71.8285 35.5746 71.7653 35.6197C71.242 36.0026 70.6928 36.3139 70.1179 36.5536C70.0867 36.5666 70.0593 36.5874 70.0387 36.6138C70.018 36.6403 70.0046 36.6715 70 36.7045L69.4083 40.8559C69.4049 40.8759 69.3951 40.8942 69.3804 40.9079C69.3657 40.9215 69.3469 40.9298 69.3271 40.9313L64.1431 41.3373C64.1132 41.3395 64.0833 41.3318 64.0582 41.3154C64.033 41.299 64.014 41.2747 64.0039 41.2465L62.6233 37.3058C62.6137 37.2776 62.5974 37.252 62.5759 37.2312C62.5544 37.2104 62.5283 37.1949 62.4996 37.1859L60.6201 36.6136C60.5634 36.5968 60.5112 36.6058 60.4635 36.6406L57.1126 39.0112C57.0584 39.0499 57.0056 39.048 56.954 39.0054L52.9824 35.6352C52.9257 35.5862 52.9147 35.5288 52.9495 35.4631L54.916 31.7293C54.9328 31.6969 54.9403 31.6606 54.9376 31.6243C54.9348 31.5881 54.922 31.5535 54.9005 31.5244C54.5319 31.0294 54.2199 30.4847 53.9647 29.8905C53.9506 29.8568 53.9279 29.8274 53.8987 29.8051C53.8696 29.7827 53.835 29.7681 53.7984 29.7628ZM73.7473 25.0352C73.7473 22.8491 72.8788 20.7524 71.333 19.2066C69.7871 17.6607 67.6905 16.7923 65.5044 16.7923C63.3182 16.7923 61.2216 17.6607 59.6758 19.2066C58.1299 20.7524 57.2615 22.8491 57.2615 25.0352C57.2615 26.1177 57.4747 27.1896 57.8889 28.1896C58.3032 29.1897 58.9103 30.0984 59.6758 30.8638C61.2216 32.4097 63.3182 33.2781 65.5044 33.2781C66.5868 33.2781 67.6587 33.0649 68.6588 32.6507C69.6589 32.2364 70.5676 31.6293 71.333 30.8638C72.0984 30.0984 72.7056 29.1897 73.1198 28.1896C73.5341 27.1896 73.7473 26.1177 73.7473 25.0352Z" fill="#757171"/>
<path d="M73.7473 25.0354C73.7473 26.1179 73.5341 27.1897 73.1198 28.1898C72.7056 29.1899 72.0984 30.0986 71.333 30.864C70.5676 31.6294 69.6589 32.2366 68.6588 32.6508C67.6587 33.0651 66.5869 33.2783 65.5044 33.2783C63.3182 33.2783 61.2216 32.4099 59.6758 30.864C58.1299 29.3182 57.2615 27.2215 57.2615 25.0354C57.2615 22.8492 58.1299 20.7526 59.6758 19.2068C61.2216 17.6609 63.3182 16.7925 65.5044 16.7925C67.6905 16.7925 69.7872 17.6609 71.333 19.2068C72.8788 20.7526 73.7473 22.8492 73.7473 25.0354ZM65.231 29.3447C65.8009 29.3756 66.3715 29.2922 66.9101 29.0993C67.4487 28.9064 67.9447 28.6078 68.3699 28.2204C68.7951 27.8331 69.1412 27.3647 69.3882 26.842C69.6353 26.3192 69.7786 25.7524 69.8099 25.1738C69.8732 24.0052 69.4766 22.8598 68.7074 21.9894C67.9382 21.119 66.8593 20.5951 65.7082 20.5327C65.1382 20.5018 64.5676 20.5852 64.0291 20.7781C63.4905 20.971 62.9944 21.2697 62.5692 21.657C62.144 22.0443 61.798 22.5127 61.5509 23.0354C61.3039 23.5582 61.1606 24.125 61.1292 24.7036C61.0659 25.8722 61.4625 27.0176 62.2318 27.888C63.001 28.7584 64.0798 29.2824 65.231 29.3447Z" fill="#302F2F"/>
<path d="M61.1292 24.7037C60.9975 27.1371 62.8339 29.2149 65.231 29.3448C67.6281 29.4746 69.6782 27.6072 69.81 25.1738C69.9417 22.7405 68.1053 20.6626 65.7082 20.5328C63.3111 20.4029 61.261 22.2703 61.1292 24.7037Z" fill="#F3F3F3"/>
<path d="M46.209 31.4375H17.5106C17.4604 31.4375 17.4197 31.4782 17.4197 31.5284V35.2641C17.4197 35.3143 17.4604 35.355 17.5106 35.355H46.209C46.2591 35.355 46.2998 35.3143 46.2998 35.2641V31.5284C46.2998 31.4782 46.2591 31.4375 46.209 31.4375Z" fill="#062D46"/>
<path d="M46.1103 44.2282L17.6265 44.2166C17.5787 44.2166 17.5327 44.1977 17.4987 44.1641C17.4647 44.1304 17.4453 44.0847 17.4448 44.0368L17.4158 40.4925C17.4155 40.4685 17.42 40.4447 17.4291 40.4224C17.4381 40.4001 17.4514 40.3798 17.4683 40.3628C17.4852 40.3457 17.5054 40.3321 17.5275 40.3229C17.5497 40.3136 17.5735 40.3088 17.5975 40.3088L46.1064 40.3108C46.1303 40.3108 46.1539 40.3155 46.176 40.3246C46.1981 40.3337 46.2181 40.3471 46.235 40.364C46.2518 40.3809 46.2652 40.4009 46.2744 40.423C46.2835 40.445 46.2882 40.4687 46.2882 40.4925L46.2921 44.0465C46.2921 44.0947 46.2729 44.1409 46.2388 44.175C46.2047 44.2091 46.1585 44.2282 46.1103 44.2282Z" fill="#CED6E0"/>
<path d="M62.2946 49.1763H17.5125C17.4634 49.1763 17.4236 49.2161 17.4236 49.2652V53.0048C17.4236 53.0539 17.4634 53.0937 17.5125 53.0937H62.2946C62.3437 53.0937 62.3835 53.0539 62.3835 53.0048V49.2652C62.3835 49.2161 62.3437 49.1763 62.2946 49.1763Z" fill="#CED6E0"/>
<path d="M77.1891 54.3333H68.2133C68.1845 54.3333 68.1611 54.3566 68.1611 54.3855V91.1895C68.1611 91.2183 68.1845 91.2417 68.2133 91.2417H77.1891C77.2179 91.2417 77.2413 91.2183 77.2413 91.1895V54.3855C77.2413 54.3566 77.2179 54.3333 77.1891 54.3333Z" fill="#9EF5F7"/>
<path d="M37.2217 91.1546V61.0235C37.2217 60.9983 37.2317 60.9742 37.2494 60.9565C37.2672 60.9387 37.2913 60.9287 37.3164 60.9287L46.2032 60.9306C46.2283 60.9306 46.2524 60.9406 46.2702 60.9584C46.288 60.9762 46.298 61.0003 46.298 61.0254L46.2941 91.145C46.2941 91.1701 46.2841 91.1942 46.2664 91.212C46.2486 91.2297 46.2245 91.2397 46.1994 91.2397L37.3164 91.2494C37.304 91.2494 37.2917 91.2469 37.2802 91.2422C37.2687 91.2374 37.2582 91.2304 37.2494 91.2216C37.2406 91.2129 37.2337 91.2024 37.2289 91.1909C37.2241 91.1794 37.2217 91.1671 37.2217 91.1546Z" fill="#062D46"/>
<path d="M61.7029 69.1851H52.7465C52.7166 69.1851 52.6924 69.2093 52.6924 69.2392V91.1855C52.6924 91.2154 52.7166 91.2396 52.7465 91.2396H61.7029C61.7328 91.2396 61.7571 91.2154 61.7571 91.1855V69.2392C61.7571 69.2093 61.7328 69.1851 61.7029 69.1851Z" fill="#19CFD2"/>
<path d="M30.7538 75.5737H21.8284C21.7878 75.5737 21.7549 75.6066 21.7549 75.6472V91.174C21.7549 91.2145 21.7878 91.2474 21.8284 91.2474H30.7538C30.7944 91.2474 30.8273 91.2145 30.8273 91.174V75.6472C30.8273 75.6066 30.7944 75.5737 30.7538 75.5737Z" fill="#36DA9E"/>
</g>
<defs>
<clipPath id="clip0_591_7188">
<rect width="99" height="99" fill="white" transform="translate(0 0.5)"/>
</clipPath>
</defs>
</svg>
