<svg width="72" height="72" viewBox="0 0 72 72" fill="none" xmlns="http://www.w3.org/2000/svg">
<g clip-path="url(#clip0_591_7175)">
<path d="M6.13266 0H18.2798C20.5242 0.423281 21.0108 3.31172 18.9014 4.31156C18.6173 4.44562 18.1922 4.51172 17.6259 4.50984C13.9931 4.49672 10.3322 4.49344 6.64313 4.5C5.39297 4.50141 4.48313 5.31141 4.48875 6.59953C4.50469 9.88172 4.50609 13.6922 4.49297 18.0309C4.48875 19.5961 2.89125 20.6564 1.42875 20.0827C0.658125 19.7798 0.181875 19.1742 0 18.2658V6.10594C0.253125 2.74359 2.77453 0.275625 6.13266 0Z" fill="#062D46"/>
<path d="M53.7328 0H65.8828C68.385 0.234375 70.1977 1.4325 71.3208 3.59437C71.7061 4.33594 71.9325 5.18297 72 6.13547V18.2587C71.8322 19.0969 71.4216 19.6767 70.7681 19.9983C69.5813 20.5833 68.1975 20.0756 67.6828 18.8803C67.5581 18.5897 67.4958 18.233 67.4958 17.8102C67.4949 14.2861 67.4995 10.7081 67.5099 7.07625C67.5117 6.38531 67.448 5.90953 67.3186 5.64891C66.9572 4.92469 66.2878 4.50141 65.4933 4.50141C61.7714 4.49953 57.9717 4.5 54.0942 4.50281C51.2297 4.50563 50.8852 0.50625 53.7328 0Z" fill="#062D46"/>
<path d="M33.7397 27.286C33.7382 28.1377 33.569 28.9808 33.2417 29.7671C32.9144 30.5534 32.4354 31.2675 31.8321 31.8687C31.2288 32.4699 30.513 32.9464 29.7256 33.2709C28.9381 33.5955 28.0945 33.7618 27.2428 33.7603L15.4641 33.7397C14.6124 33.7382 13.7693 33.569 12.983 33.2417C12.1967 32.9144 11.4825 32.4354 10.8813 31.8321C10.2801 31.2288 9.80367 30.513 9.47911 29.7256C9.15455 28.9381 8.98827 28.0945 8.98976 27.2428L9.01032 15.4641C9.0118 14.6124 9.18103 13.7693 9.50833 12.983C9.83564 12.1967 10.3146 11.4825 10.9179 10.8813C11.5212 10.2801 12.237 9.80367 13.0245 9.47911C13.8119 9.15455 14.6556 8.98827 15.5073 8.98976L27.286 9.01032C28.1377 9.0118 28.9808 9.18103 29.7671 9.50833C30.5534 9.83564 31.2675 10.3146 31.8687 10.9179C32.4699 11.5212 32.9464 12.237 33.2709 13.0245C33.5955 13.8119 33.7618 14.6556 33.7603 15.5073L33.7397 27.286ZM29.2397 15.4747C29.2393 15.2136 29.1874 14.9551 29.0871 14.714C28.9867 14.473 28.8399 14.254 28.6549 14.0697C28.4699 13.8854 28.2505 13.7393 28.009 13.6398C27.7676 13.5403 27.509 13.4893 27.2478 13.4898L15.4747 13.5103C15.2136 13.5108 14.9551 13.5626 14.714 13.663C14.473 13.7633 14.254 13.9102 14.0697 14.0952C13.8854 14.2801 13.7393 14.4996 13.6398 14.741C13.5403 14.9824 13.4893 15.2411 13.4898 15.5022L13.5103 27.2753C13.5108 27.5365 13.5626 27.7949 13.663 28.036C13.7633 28.2771 13.9102 28.496 14.0952 28.6803C14.2801 28.8647 14.4996 29.0108 14.741 29.1103C14.9824 29.2098 15.2411 29.2607 15.5022 29.2603L27.2753 29.2397C27.5365 29.2393 27.7949 29.1874 28.036 29.0871C28.2771 28.9867 28.496 28.8399 28.6803 28.6549C28.8647 28.4699 29.0108 28.2505 29.1103 28.009C29.2098 27.7676 29.2607 27.509 29.2603 27.2478L29.2397 15.4747Z" fill="#062D46"/>
<path d="M62.9897 27.286C62.9882 28.1377 62.819 28.9808 62.4917 29.7671C62.1644 30.5534 61.6854 31.2675 61.0821 31.8687C60.4788 32.4699 59.763 32.9464 58.9756 33.2709C58.1881 33.5955 57.3445 33.7618 56.4928 33.7603L44.7141 33.7397C43.8624 33.7382 43.0193 33.569 42.233 33.2417C41.4467 32.9144 40.7325 32.4354 40.1313 31.8321C39.5301 31.2288 39.0537 30.513 38.7291 29.7256C38.4046 28.9381 38.2383 28.0945 38.2398 27.2428L38.2603 15.4641C38.2618 14.6124 38.431 13.7693 38.7583 12.983C39.0856 12.1967 39.5646 11.4825 40.1679 10.8813C40.7712 10.2801 41.487 9.80367 42.2745 9.47911C43.0619 9.15455 43.9056 8.98827 44.7573 8.98976L56.536 9.01032C57.3877 9.0118 58.2308 9.18103 59.0171 9.50833C59.8034 9.83564 60.5175 10.3146 61.1187 10.9179C61.7199 11.5212 62.1964 12.237 62.5209 13.0245C62.8455 13.8119 63.0118 14.6556 63.0103 15.5073L62.9897 27.286ZM58.4897 15.4747C58.4893 15.2136 58.4374 14.9551 58.3371 14.714C58.2367 14.473 58.0899 14.254 57.9049 14.0697C57.7199 13.8854 57.5005 13.7393 57.259 13.6398C57.0176 13.5403 56.759 13.4893 56.4978 13.4898L44.7247 13.5103C44.4636 13.5108 44.2051 13.5626 43.964 13.663C43.723 13.7633 43.504 13.9102 43.3197 14.0952C43.1354 14.2801 42.9893 14.4996 42.8898 14.741C42.7903 14.9824 42.7393 15.2411 42.7398 15.5022L42.7603 27.2753C42.7608 27.5365 42.8126 27.7949 42.913 28.036C43.0133 28.2771 43.1602 28.496 43.3452 28.6803C43.5301 28.8647 43.7496 29.0108 43.991 29.1103C44.2324 29.2098 44.4911 29.2607 44.7522 29.2603L56.5253 29.2397C56.7865 29.2393 57.0449 29.1874 57.286 29.0871C57.5271 28.9867 57.746 28.8399 57.9303 28.6549C58.1147 28.4699 58.2608 28.2505 58.3603 28.009C58.4598 27.7676 58.5107 27.509 58.5103 27.2478L58.4897 15.4747Z" fill="#062D46"/>
<path d="M22.5065 18.0045L20.279 17.9928C19.0294 17.9863 18.0111 18.994 18.0045 20.2436L17.9928 22.4711C17.9863 23.7207 18.994 24.739 20.2436 24.7455L22.4711 24.7572C23.7207 24.7637 24.739 23.756 24.7456 22.5064L24.7572 20.2789C24.7638 19.0293 23.7561 18.011 22.5065 18.0045Z" fill="#062D46"/>
<path d="M51.7565 18.0045L49.529 17.9928C48.2794 17.9863 47.2611 18.994 47.2545 20.2436L47.2428 22.4711C47.2363 23.7207 48.244 24.739 49.4936 24.7455L51.7211 24.7572C52.9707 24.7637 53.989 23.756 53.9956 22.5064L54.0072 20.2789C54.0138 19.0293 53.0061 18.011 51.7565 18.0045Z" fill="#062D46"/>
<path d="M33.7397 56.536C33.7382 57.3877 33.569 58.2308 33.2417 59.0171C32.9144 59.8034 32.4354 60.5175 31.8321 61.1187C31.2288 61.7199 30.513 62.1964 29.7256 62.5209C28.9381 62.8455 28.0945 63.0118 27.2428 63.0103L15.4641 62.9897C14.6124 62.9882 13.7693 62.819 12.983 62.4917C12.1967 62.1644 11.4825 61.6854 10.8813 61.0821C10.2801 60.4788 9.80367 59.763 9.47911 58.9756C9.15455 58.1881 8.98827 57.3445 8.98976 56.4928L9.01032 44.7141C9.0118 43.8624 9.18103 43.0193 9.50833 42.233C9.83564 41.4467 10.3146 40.7325 10.9179 40.1313C11.5212 39.5301 12.237 39.0537 13.0245 38.7291C13.8119 38.4046 14.6556 38.2383 15.5073 38.2398L27.286 38.2603C28.1377 38.2618 28.9808 38.431 29.7671 38.7583C30.5534 39.0856 31.2675 39.5646 31.8687 40.1679C32.4699 40.7712 32.9464 41.487 33.2709 42.2745C33.5955 43.0619 33.7618 43.9056 33.7603 44.7573L33.7397 56.536ZM29.2397 44.7247C29.2393 44.4636 29.1874 44.2051 29.0871 43.964C28.9867 43.723 28.8399 43.504 28.6549 43.3197C28.4699 43.1354 28.2505 42.9893 28.009 42.8898C27.7676 42.7903 27.509 42.7393 27.2478 42.7398L15.4747 42.7603C15.2136 42.7608 14.9551 42.8126 14.714 42.913C14.473 43.0133 14.254 43.1602 14.0697 43.3452C13.8854 43.5301 13.7393 43.7496 13.6398 43.991C13.5403 44.2324 13.4893 44.4911 13.4898 44.7522L13.5103 56.5253C13.5108 56.7865 13.5626 57.0449 13.663 57.286C13.7633 57.5271 13.9102 57.746 14.0952 57.9303C14.2801 58.1147 14.4996 58.2608 14.741 58.3603C14.9824 58.4598 15.2411 58.5107 15.5022 58.5103L27.2753 58.4897C27.5365 58.4893 27.7949 58.4374 28.036 58.3371C28.2771 58.2367 28.496 58.0899 28.6803 57.9049C28.8647 57.7199 29.0108 57.5005 29.1103 57.259C29.2098 57.0176 29.2607 56.759 29.2603 56.4978L29.2397 44.7247Z" fill="#062D46"/>
<path d="M54.0057 49.3889C54.0057 49.4162 54.0165 49.4425 54.0357 49.462C54.0549 49.4814 54.081 49.4926 54.1083 49.4929C55.6093 49.5108 57.0741 49.5089 58.5029 49.4873C59.3457 49.4751 59.9832 49.5342 60.4154 49.6645C61.9369 50.1229 62.986 51.5475 62.9944 53.1379C63.0057 55.3523 63.0048 57.4561 62.9916 59.4492C62.9804 60.9848 61.913 62.332 60.4871 62.8115C60.0427 62.9597 59.4268 63.0267 58.6393 63.0126C57.1055 62.9854 55.5432 62.9854 53.9523 63.0126C53.0944 63.0286 52.4354 62.9573 51.9751 62.7989C50.334 62.2336 49.4776 60.7725 49.4916 59.0667C49.5048 57.4561 49.5062 55.8084 49.4958 54.1237C49.4958 54.1086 49.4929 54.0936 49.4871 54.0796C49.4813 54.0656 49.4728 54.0529 49.4621 54.0422C49.4514 54.0315 49.4387 54.023 49.4247 54.0172C49.4107 54.0114 49.3957 54.0084 49.3805 54.0084C47.1174 53.9897 44.9223 53.9911 42.7951 54.0126C41.8932 54.022 41.2435 53.9658 40.846 53.8439C39.3076 53.3714 38.2599 51.9651 38.2543 50.3254C38.2449 47.3929 38.2463 44.5411 38.2585 41.7698C38.2641 40.2567 39.3638 38.9095 40.7504 38.4412C41.1544 38.3053 41.6232 38.2387 42.1566 38.2415C44.6841 38.2575 47.2168 38.2561 49.7546 38.2373C51.1637 38.2275 52.2408 38.4989 53.1282 39.5451C53.8088 40.3495 54.0141 41.2115 54.0071 42.2972C53.993 44.8237 53.9926 47.1876 54.0057 49.3889ZM49.5001 42.8723C49.5001 42.8399 49.4872 42.8088 49.4642 42.7858C49.4413 42.7629 49.4102 42.75 49.3777 42.75H42.8724C42.84 42.75 42.8088 42.7629 42.7859 42.7858C42.763 42.8088 42.7501 42.8399 42.7501 42.8723V49.3776C42.7501 49.4101 42.763 49.4412 42.7859 49.4641C42.8088 49.4871 42.84 49.5 42.8724 49.5H49.3777C49.4102 49.5 49.4413 49.4871 49.4642 49.4641C49.4872 49.4412 49.5001 49.4101 49.5001 49.3776V42.8723ZM58.5001 54.1181C58.5001 54.0868 58.4876 54.0567 58.4655 54.0346C58.4433 54.0124 58.4133 54 58.3819 54H54.1182C54.0869 54 54.0568 54.0124 54.0347 54.0346C54.0125 54.0567 54.0001 54.0868 54.0001 54.1181V58.3818C54.0001 58.4132 54.0125 58.4432 54.0347 58.4654C54.0568 58.4875 54.0869 58.5 54.1182 58.5H58.3819C58.4133 58.5 58.4433 58.4875 58.4655 58.4654C58.4876 58.4432 58.5001 58.4132 58.5001 58.3818V54.1181Z" fill="#062D46"/>
<path d="M22.5065 47.2545L20.279 47.2428C19.0294 47.2363 18.0111 48.244 18.0045 49.4936L17.9928 51.7211C17.9863 52.9707 18.994 53.989 20.2436 53.9955L22.4711 54.0072C23.7207 54.0137 24.739 53.006 24.7456 51.7564L24.7572 49.5289C24.7638 48.2793 23.7561 47.261 22.5065 47.2545Z" fill="#062D46"/>
<path d="M18.2447 72H6.13828C3.62859 71.7722 1.80938 70.5736 0.680625 68.4042C0.293438 67.6608 0.0665625 66.8161 0 65.8701V53.7187C0.154688 52.9359 0.54 52.3758 1.15594 52.0383C2.66344 51.2128 4.48875 52.2886 4.49438 53.9817C4.50656 57.8948 4.50563 61.5731 4.49156 65.0166C4.48875 65.6709 4.55391 66.1233 4.68703 66.3736C5.07938 67.1091 5.74453 67.5028 6.55734 67.5028C10.492 67.5028 14.183 67.4986 17.6302 67.4901C18.1177 67.4892 18.4913 67.5361 18.7509 67.6308C19.9294 68.0597 20.527 69.3253 20.115 70.5248C19.8338 71.3433 19.2103 71.835 18.2447 72Z" fill="#062D46"/>
<path d="M72 53.7568V65.8857C71.7628 68.386 70.5638 70.1973 68.4029 71.3194C67.6519 71.7094 66.7993 71.9363 65.8449 72.0001H53.7202C50.8782 71.3968 51.2382 67.5043 54.0872 67.5001C57.7219 67.4935 61.336 67.4972 64.9294 67.5113C65.6157 67.5141 66.0868 67.4518 66.3427 67.3243C67.1218 66.9376 67.4986 66.2569 67.4986 65.4104C67.5014 61.7448 67.5014 58.0121 67.4986 54.2124C67.4986 53.8393 67.5385 53.5308 67.6182 53.2871C68.0893 51.8485 69.84 51.286 71.0761 52.1916C71.5758 52.5563 71.8838 53.078 72 53.7568Z" fill="#062D46"/>
</g>
<defs>
<clipPath id="clip0_591_7175">
<rect width="72" height="72" fill="white"/>
</clipPath>
</defs>
</svg>
