<svg width="60" height="60" viewBox="0 0 60 60" fill="none" xmlns="http://www.w3.org/2000/svg">
<path d="M5.33769 30.997C5.34941 30.9806 5.36035 30.9685 5.37051 30.9607C5.38223 30.9521 5.39512 30.9501 5.40918 30.9548C6.83535 31.4798 7.59942 32.7361 7.50098 34.2572C7.46465 34.8197 7.62519 35.3529 8.18652 35.5661C8.34355 35.6255 8.61192 35.6552 8.9916 35.6552C14.2658 35.6544 19.5424 35.6548 24.8213 35.6564" stroke="#529CFF" stroke-width="0.234375"/>
<path d="M24.8212 35.6565C24.8212 35.7675 24.8302 35.812 24.8481 35.7901" stroke="#A2CBFF" stroke-width="0.234375"/>
<path d="M24.8482 35.79C24.2826 36.8666 23.7178 37.9263 23.1537 38.9693C23.0154 39.2256 22.9408 39.4283 22.9299 39.5775C22.8971 40.058 23.2604 40.5045 23.7268 40.5959C23.8986 40.6295 24.0928 40.6279 24.3092 40.5912C25.3529 40.4138 26.4162 40.24 27.499 40.0697C27.9686 39.9955 28.3619 40.1236 28.6791 40.4541C29.5002 41.3111 30.3088 42.1549 31.1049 42.9853C31.7283 43.6369 32.7643 43.2865 32.8979 42.4088C33.0666 41.3095 33.2471 40.1947 33.4393 39.0642C33.5111 38.6455 33.676 38.3716 33.9338 38.2427C35.0494 37.6873 36.1498 37.1365 37.235 36.5904C37.5365 36.4381 37.7365 36.1709 37.835 35.7888" stroke="#B2DCFF" stroke-width="0.234375"/>
<path d="M37.8349 35.7887C37.856 35.766 37.8693 35.7297 37.8748 35.6797" stroke="#A2CBFF" stroke-width="0.234375"/>
<path d="M37.8747 35.6799C37.9466 35.6713 38.0169 35.667 38.0856 35.667C42.5036 35.66 46.797 35.6557 50.9657 35.6542C51.2767 35.6534 51.52 35.6241 51.6958 35.5663C52.4165 35.3272 52.3954 34.5327 52.4317 33.9209C52.5313 32.2323 53.4161 31.0768 55.1528 30.8073" stroke="#529CFF" stroke-width="0.234375"/>
<path d="M24.8214 35.6564C24.873 35.5345 24.88 35.4263 24.8425 35.3318C24.7386 35.0724 24.496 34.6146 24.1148 33.9583" stroke="#8EAEFF" stroke-width="0.234375"/>
<path d="M24.1147 33.9583L35.687 33.9208" stroke="#EDCA9F" stroke-width="0.234375"/>
<path d="M35.6869 33.9209C36.2314 34.1991 36.772 34.4792 37.3087 34.7612C37.6439 34.9362 37.8326 35.2424 37.8748 35.6799" stroke="#8EAEFF" stroke-width="0.234375"/>
<path d="M5.73272 29.184C5.771 29.1661 5.80381 29.1614 5.83115 29.17C7.90772 29.8379 9.33154 31.6567 9.34092 33.8598C9.34092 33.8683 9.34258 33.8767 9.34582 33.8845C9.34906 33.8923 9.35381 33.8994 9.3598 33.9054C9.36578 33.9114 9.37289 33.9161 9.38071 33.9194C9.38853 33.9226 9.39691 33.9243 9.40537 33.9243L24.1147 33.9583" stroke="#9D9B9F" stroke-width="0.234375"/>
<path d="M24.8482 35.7898L37.835 35.7886" stroke="#EFEEFF" stroke-width="0.234375"/>
<path d="M35.687 33.9209L50.7022 33.9221C50.7413 33.9221 50.7616 33.9026 50.7631 33.8635C50.8334 32.0956 51.5776 30.7303 52.9956 29.7678C53.4635 29.4499 54.0081 29.2233 54.6292 29.0881" stroke="#9D9B9F" stroke-width="0.234375"/>
<path d="M15.9251 53.1857C16.0103 53.4544 16.1988 53.6783 16.4491 53.808C16.6994 53.9377 16.9909 53.9627 17.2596 53.8775L50.6652 43.2806C50.9339 43.1954 51.1578 43.0069 51.2875 42.7566C51.4172 42.5063 51.4422 42.2148 51.357 41.9461L51.3378 41.8858C51.2526 41.6171 51.0641 41.3932 50.8139 41.2635C50.5636 41.1338 50.272 41.1088 50.0033 41.194L16.5977 51.7909C16.329 51.8761 16.1052 52.0646 15.9754 52.3149C15.8457 52.5652 15.8207 52.8567 15.906 53.1254L15.9251 53.1857Z" stroke="#529CFF" stroke-width="0.234375"/>
<path d="M11.4338 29.4336C11.4338 29.5841 11.4635 29.7332 11.5211 29.8722C11.5787 30.0113 11.6631 30.1376 11.7695 30.244C11.8759 30.3505 12.0023 30.4349 12.1413 30.4925C12.2804 30.5501 12.4294 30.5797 12.5799 30.5797H47.4245C47.7284 30.5797 48.0199 30.459 48.2349 30.244C48.4498 30.0291 48.5706 29.7376 48.5706 29.4336V29.4149C48.5706 29.1109 48.4498 28.8194 48.2349 28.6045C48.0199 28.3895 47.7284 28.2688 47.4245 28.2688H12.5799C12.4294 28.2688 12.2804 28.2984 12.1413 28.356C12.0023 28.4136 11.8759 28.498 11.7695 28.6045C11.6631 28.7109 11.5787 28.8372 11.5211 28.9763C11.4635 29.1153 11.4338 29.2644 11.4338 29.4149V29.4336Z" stroke="#FDA836" stroke-width="0.234375"/>
<path d="M32.9683 22.4528C33.1687 22.038 33.2976 21.663 33.8132 21.588C35.1117 21.3997 36.4613 21.2024 37.862 20.9962C38.8031 20.8567 39.0843 19.7997 38.4363 19.1716C37.4152 18.1841 36.3898 17.2012 35.3601 16.2231C35.1906 16.0622 35.1253 15.8669 35.1644 15.6372C35.3691 14.4466 35.6042 13.1149 35.8699 11.6423C36.0316 10.7411 35.2019 9.91257 34.3218 10.3602C33.2304 10.9157 32.1042 11.4973 30.9433 12.1051C30.5167 12.329 30.0023 12.4052 29.557 12.1778C28.4288 11.6036 27.2695 11.0051 26.0788 10.3825C25.1941 9.91843 24.3199 10.6801 24.4757 11.5966C24.6695 12.7364 24.8796 13.9231 25.1062 15.1567C25.1847 15.588 25.1355 16.0497 24.8167 16.3626C23.848 17.311 22.8855 18.2376 21.9292 19.1423C21.1874 19.8442 21.6199 20.8731 22.5785 21.0149C23.9464 21.2173 25.273 21.4114 26.5581 21.5973C26.8042 21.6325 27.055 21.7919 27.1675 22.0239C27.7253 23.1755 28.2992 24.3634 28.889 25.5876C29.3355 26.5145 30.3492 26.5075 31.1214 25.9602C31.2886 25.8423 31.432 25.6567 31.5515 25.4036C32.0109 24.4348 32.4831 23.4512 32.9683 22.4528Z" stroke="#FEDB9F" stroke-width="0.234375"/>
<path d="M11.4232 7.06047C11.4232 7.36226 11.5431 7.65169 11.7565 7.86508C11.9699 8.07848 12.2593 8.19836 12.5611 8.19836H47.4314C47.7332 8.19836 48.0227 8.07848 48.2361 7.86508C48.4495 7.65169 48.5693 7.36226 48.5693 7.06047V7.02532C48.5693 6.72353 48.4495 6.4341 48.2361 6.22071C48.0227 6.00731 47.7332 5.88743 47.4314 5.88743H12.5611C12.2593 5.88743 11.9699 6.00731 11.7565 6.22071C11.5431 6.4341 11.4232 6.72353 11.4232 7.02532V7.06047Z" stroke="#FDA836" stroke-width="0.234375"/>
<path d="M5.33793 30.9974C5.34965 30.981 5.36059 30.9689 5.37075 30.9611C5.38247 30.9525 5.39536 30.9505 5.40942 30.9552C6.83559 31.4802 7.59966 32.7365 7.50122 34.2576C7.46489 34.8201 7.62543 35.3533 8.18676 35.5666C8.34379 35.6259 8.61216 35.6556 8.99184 35.6556C14.2661 35.6548 19.5426 35.6552 24.8215 35.6568C24.8215 35.7677 24.8305 35.8123 24.8485 35.7904C24.2829 36.8669 23.718 37.9267 23.1539 38.9697C23.0157 39.2259 22.9411 39.4287 22.9301 39.5779C22.8973 40.0583 23.2606 40.5048 23.727 40.5962C23.8989 40.6298 24.093 40.6283 24.3094 40.5916C25.3532 40.4142 26.4165 40.2404 27.4993 40.0701C27.9688 39.9958 28.3622 40.124 28.6793 40.4544C29.5004 41.3115 30.309 42.1552 31.1051 42.9857C31.7286 43.6373 32.7645 43.2869 32.8981 42.4091C33.0668 41.3099 33.2473 40.1951 33.4395 39.0646C33.5114 38.6458 33.6762 38.372 33.934 38.2431C35.0497 37.6876 36.15 37.1369 37.2352 36.5908C37.5368 36.4384 37.7368 36.1712 37.8352 35.7892C37.8563 35.7666 37.8696 35.7302 37.875 35.6802C37.9469 35.6716 38.0172 35.6673 38.086 35.6673C42.504 35.6603 46.7973 35.656 50.9661 35.6544C51.277 35.6537 51.5204 35.6244 51.6961 35.5666C52.4168 35.3275 52.3957 34.533 52.4321 33.9212C52.5317 32.2326 53.4165 31.0771 55.1532 30.8076L57.6668 38.7037C57.6793 38.7435 57.6661 38.7708 57.627 38.7857C55.1426 39.688 53.7094 42.2216 54.4407 44.8162C54.4524 44.8583 54.4375 44.8861 54.3961 44.8994L15.061 57.4373C15.025 57.449 15.0004 57.4373 14.9872 57.4021C14.0743 54.9189 11.5536 53.4693 8.94965 54.2123C8.90825 54.224 8.88091 54.2091 8.86763 54.1677L2.33208 33.7619C2.31958 33.722 2.33325 33.6955 2.37309 33.6822C3.74887 33.2041 4.73715 32.3091 5.33793 30.9974ZM15.9253 53.1861C16.0105 53.4548 16.199 53.6786 16.4493 53.8083C16.6996 53.9381 16.9911 53.9631 17.2598 53.8778L50.6654 43.2809C50.9341 43.1957 51.158 43.0072 51.2877 42.7569C51.4174 42.5067 51.4424 42.2151 51.3572 41.9464L51.3381 41.8861C51.2528 41.6174 51.0643 41.3936 50.8141 41.2638C50.5638 41.1341 50.2722 41.1091 50.0035 41.1943L16.5979 51.7912C16.3292 51.8765 16.1054 52.065 15.9757 52.3152C15.8459 52.5655 15.8209 52.8571 15.9062 53.1258L15.9253 53.1861Z" fill="#19CFD2"/>
<path d="M17.26 53.878L50.6656 43.2811C51.2251 43.1036 51.5348 42.5061 51.3573 41.9466L51.3382 41.8863C51.1607 41.3267 50.5632 41.017 50.0037 41.1945L16.5981 51.7914C16.0385 51.9689 15.7288 52.5664 15.9063 53.1259L15.9254 53.1862C16.1029 53.7458 16.7004 54.0555 17.26 53.878Z" fill="#14B5B8"/>
<path d="M24.8485 35.79L37.8352 35.7888C37.7368 36.1709 37.5368 36.4381 37.2352 36.5904C36.15 37.1365 35.0497 37.6873 33.934 38.2427C33.6762 38.3716 33.5114 38.6455 33.4395 39.0642C33.2473 40.1947 33.0668 41.3095 32.8981 42.4088C32.7645 43.2865 31.7286 43.6369 31.1051 42.9853C30.309 42.1549 29.5004 41.3111 28.6793 40.4541C28.3622 40.1236 27.9688 39.9955 27.4993 40.0697C26.4165 40.24 25.3532 40.4138 24.3094 40.5912C24.093 40.6279 23.8989 40.6295 23.727 40.5959C23.2606 40.5045 22.8973 40.058 22.9301 39.5775C22.9411 39.4283 23.0157 39.2256 23.154 38.9693C23.718 37.9263 24.2829 36.8666 24.8485 35.79Z" fill="white"/>
<path d="M37.8352 35.789L24.8484 35.7901C24.8305 35.812 24.8215 35.7675 24.8215 35.6565C24.873 35.5347 24.8801 35.4265 24.8426 35.3319C24.7387 35.0725 24.4961 34.6147 24.1148 33.9585L35.6871 33.921C36.2316 34.1991 36.7723 34.4792 37.309 34.7612C37.6441 34.9362 37.8328 35.2425 37.875 35.68C37.8695 35.73 37.8563 35.7663 37.8352 35.789Z" fill="#DEDDFF"/>
<path d="M37.875 35.6799C37.8328 35.2424 37.6441 34.9362 37.3089 34.7612C36.7722 34.4792 36.2316 34.1991 35.6871 33.9209L50.7023 33.9221C50.7414 33.9221 50.7617 33.9026 50.7632 33.8635C50.8335 32.0956 51.5777 30.7303 52.9957 29.7678C53.4636 29.4499 54.0082 29.2233 54.6292 29.0881L55.1531 30.8073C53.4164 31.0768 52.5316 32.2323 52.432 33.9209C52.3957 34.5327 52.4167 35.3272 51.696 35.5663C51.5203 35.6241 51.2769 35.6534 50.966 35.6542C46.7972 35.6557 42.5039 35.66 38.0859 35.667C38.0171 35.667 37.9468 35.6713 37.875 35.6799Z" fill="#14B5B8"/>
<path d="M24.8214 35.6564C19.5425 35.6548 14.266 35.6544 8.99175 35.6552C8.61206 35.6552 8.3437 35.6255 8.18667 35.5661C7.62534 35.3529 7.46479 34.8197 7.50112 34.2572C7.59956 32.7361 6.8355 31.4798 5.40932 30.9548C5.39526 30.9501 5.38237 30.9521 5.37065 30.9607C5.36049 30.9685 5.34956 30.9806 5.33784 30.997C5.33432 30.9372 5.32143 30.8997 5.34604 30.8423C5.56714 30.3103 5.69604 29.7575 5.73276 29.1841C5.77105 29.1661 5.80386 29.1615 5.8312 29.17C7.90776 29.838 9.33159 31.6568 9.34096 33.8599C9.34096 33.8684 9.34263 33.8767 9.34587 33.8846C9.34911 33.8924 9.35386 33.8995 9.35984 33.9055C9.36583 33.9114 9.37293 33.9162 9.38075 33.9194C9.38857 33.9227 9.39696 33.9243 9.40542 33.9243L24.1148 33.9583C24.496 34.6146 24.7386 35.0724 24.8425 35.3318C24.88 35.4263 24.873 35.5345 24.8214 35.6564Z" fill="#14B5B8"/>
<path d="M24.1147 33.9587L9.40538 33.9248C9.39691 33.9248 9.38853 33.9231 9.38071 33.9198C9.37289 33.9166 9.36578 33.9119 9.3598 33.9059C9.35381 33.8999 9.34907 33.8928 9.34583 33.885C9.34259 33.8771 9.34092 33.8688 9.34092 33.8603C9.33155 31.6572 7.90772 29.8384 5.83116 29.1705C5.80381 29.1619 5.771 29.1666 5.73272 29.1845C5.71709 29.1517 5.69014 29.1306 5.65186 29.1212C5.26514 29.0306 4.86436 28.9736 4.44952 28.9501C4.41045 28.9478 4.39092 28.9267 4.39092 28.8869L4.38975 7.46733C4.38975 7.40874 4.41944 7.37944 4.47881 7.37944C5.47842 7.37593 6.51905 7.03374 7.32061 6.43608C8.60654 5.47827 9.2835 4.16069 9.35147 2.48335C9.35303 2.44663 9.37217 2.42827 9.40889 2.42827H50.7093C50.7483 2.42827 50.7683 2.4478 50.769 2.48687C50.7972 3.47671 51.0714 4.3564 51.5917 5.12593C52.5565 6.55327 53.9144 7.30874 55.6651 7.39233C55.7058 7.39468 55.7261 7.41616 55.7261 7.45679V28.8833C55.7261 28.9216 55.7073 28.9431 55.6698 28.9478L54.6292 29.0884C54.0081 29.2236 53.4636 29.4501 52.9956 29.7681C51.5776 30.7306 50.8335 32.0958 50.7632 33.8638C50.7616 33.9029 50.7413 33.9224 50.7022 33.9224L35.687 33.9212L24.1147 33.9587ZM11.4339 29.4341C11.4339 29.5846 11.4635 29.7337 11.5211 29.8727C11.5787 30.0118 11.6632 30.1381 11.7696 30.2445C11.876 30.351 12.0023 30.4354 12.1414 30.493C12.2804 30.5506 12.4295 30.5802 12.58 30.5802H47.4245C47.7285 30.5802 48.02 30.4595 48.2349 30.2445C48.4499 30.0296 48.5706 29.7381 48.5706 29.4341V29.4154C48.5706 29.1114 48.4499 28.8199 48.2349 28.605C48.02 28.39 47.7285 28.2693 47.4245 28.2693H12.58C12.4295 28.2693 12.2804 28.2989 12.1414 28.3565C12.0023 28.4141 11.876 28.4985 11.7696 28.605C11.6632 28.7114 11.5787 28.8377 11.5211 28.9768C11.4635 29.1158 11.4339 29.2649 11.4339 29.4154V29.4341ZM32.9683 22.4533C33.1687 22.0384 33.2976 21.6634 33.8132 21.5884C35.1116 21.4001 36.4612 21.2029 37.862 20.9966C38.803 20.8572 39.0843 19.8001 38.4362 19.172C37.4151 18.1845 36.3897 17.2017 35.3601 16.2236C35.1905 16.0626 35.1253 15.8673 35.1644 15.6376C35.369 14.447 35.6042 13.1154 35.8698 11.6427C36.0315 10.7416 35.2019 9.91304 34.3218 10.3607C33.2304 10.9162 32.1042 11.4978 30.9433 12.1056C30.5167 12.3294 30.0022 12.4056 29.5569 12.1783C28.4288 11.6041 27.2694 11.0056 26.0788 10.383C25.194 9.9189 24.3198 10.6806 24.4757 11.597C24.6694 12.7369 24.8796 13.9236 25.1062 15.1572C25.1847 15.5884 25.1355 16.0501 24.8167 16.363C23.8479 17.3115 22.8855 18.238 21.9292 19.1427C21.1874 19.8447 21.6198 20.8736 22.5784 21.0154C23.9464 21.2177 25.273 21.4119 26.5581 21.5978C26.8042 21.633 27.055 21.7923 27.1675 22.0244C27.7253 23.1759 28.2991 24.3638 28.889 25.588C29.3354 26.515 30.3491 26.508 31.1214 25.9607C31.2886 25.8427 31.4319 25.6572 31.5515 25.4041C32.0108 24.4353 32.4831 23.4517 32.9683 22.4533ZM11.4233 7.06069C11.4233 7.36248 11.5432 7.65191 11.7566 7.8653C11.97 8.0787 12.2594 8.19858 12.5612 8.19858H47.4315C47.7333 8.19858 48.0228 8.0787 48.2362 7.8653C48.4495 7.65191 48.5694 7.36248 48.5694 7.06069V7.02554C48.5694 6.72375 48.4495 6.43432 48.2362 6.22093C48.0228 6.00753 47.7333 5.88765 47.4315 5.88765H12.5612C12.2594 5.88765 11.97 6.00753 11.7566 6.22093C11.5432 6.43432 11.4233 6.72375 11.4233 7.02554V7.06069Z" fill="#36DA9E"/>
<path d="M12.5802 30.5802H47.4247C48.0577 30.5802 48.5708 30.0671 48.5708 29.4341V29.4154C48.5708 28.7824 48.0577 28.2693 47.4247 28.2693H12.5802C11.9472 28.2693 11.4341 28.7824 11.4341 29.4154V29.4341C11.4341 30.0671 11.9472 30.5802 12.5802 30.5802Z" fill="#84FACF"/>
<path d="M32.9685 22.4533C32.4834 23.4517 32.0111 24.4353 31.5517 25.4041C31.4322 25.6572 31.2889 25.8427 31.1217 25.9607C30.3494 26.508 29.3357 26.515 28.8892 25.5881C28.2994 24.3638 27.7256 23.1759 27.1678 22.0244C27.0553 21.7924 26.8045 21.633 26.5584 21.5978C25.2732 21.4119 23.9467 21.2177 22.5787 21.0154C21.6201 20.8736 21.1877 19.8447 21.9295 19.1427C22.8857 18.2381 23.8482 17.3115 24.817 16.3631C25.1357 16.0502 25.1849 15.5884 25.1064 15.1572C24.8799 13.9236 24.6697 12.7369 24.476 11.597C24.3201 10.6806 25.1943 9.91892 26.0791 10.383C27.2697 11.0056 28.4291 11.6041 29.5572 12.1783C30.0025 12.4056 30.517 12.3295 30.9435 12.1056C32.1045 11.4978 33.2307 10.9162 34.3221 10.3607C35.2021 9.91306 36.0318 10.7416 35.8701 11.6427C35.6045 13.1154 35.3693 14.447 35.1646 15.6377C35.1256 15.8674 35.1908 16.0627 35.3603 16.2236C36.39 17.2017 37.4154 18.1845 38.4365 19.172C39.0846 19.8002 38.8033 20.8572 37.8623 20.9967C36.4615 21.2029 35.1119 21.4002 33.8135 21.5884C33.2978 21.6634 33.1689 22.0384 32.9685 22.4533Z" fill="white"/>
<path d="M12.5614 8.19836H47.4317C48.0601 8.19836 48.5696 7.68891 48.5696 7.06047V7.02532C48.5696 6.39688 48.0601 5.88743 47.4317 5.88743H12.5614C11.9329 5.88743 11.4235 6.39688 11.4235 7.02532V7.06047C11.4235 7.68891 11.9329 8.19836 12.5614 8.19836Z" fill="#84FACF"/>
</svg>
