<svg width="268" height="128" viewBox="0 0 268 128" fill="none" xmlns="http://www.w3.org/2000/svg">
<path d="M131.135 2.00403C131.437 2.7846 131.802 3.39134 132.231 3.82426C133.08 4.68354 134.773 4.6573 135.694 3.96528C136.895 3.06337 137.065 0.9742 138.492 0.387134C140.18 -0.310348 141.581 -0.0446847 142.696 1.18411C142.785 1.28203 142.9 1.35366 143.027 1.39124C143.154 1.42882 143.289 1.43091 143.418 1.39729C143.803 1.2989 144.126 1.24532 144.389 1.23657C147.874 1.10539 151.011 1.1032 153.801 1.23002C154.208 1.24642 154.585 1.41696 154.92 1.03323C155.678 0.167395 156.698 -0.0742064 157.98 0.308425C158.564 0.482249 158.947 0.875816 159.449 1.19395C159.55 1.25954 159.66 1.29015 159.78 1.28578C162.268 1.19395 164.814 1.14693 167.415 1.14474C194.72 1.12507 222.023 1.11632 249.326 1.11851C252.999 1.11851 255.728 2.28608 256.676 6.08725C256.929 7.10395 257.162 7.82221 257.374 8.24201C259.306 12.0727 262.963 12.1219 266.813 11.9874C266.838 11.9865 266.862 11.9907 266.885 11.9997C266.909 12.0087 266.93 12.0224 266.947 12.0398C266.965 12.0573 266.979 12.0782 266.989 12.1013C266.998 12.1244 267.003 12.1493 267.003 12.1744L266.994 18.5468L0.0295163 18.5993L2.56622e-07 12.3515C-5.53861e-05 12.307 0.0089382 12.263 0.0264361 12.2221C0.043934 12.1812 0.0695694 12.1442 0.101783 12.1136C0.133996 12.0829 0.172116 12.0591 0.213819 12.0436C0.255523 12.0281 0.299938 12.0213 0.344367 12.0235C3.63718 12.1678 7.02183 12.0399 9.14379 9.20624C10.6557 7.18595 10.4655 4.46708 12.5875 2.78132C14.6438 1.14475 17.1036 1.14147 19.5863 1.13819C50.0569 1.10758 79.8245 1.10867 108.889 1.14147C109.152 1.14147 109.394 1.06384 109.617 0.908605C109.818 0.766485 110.019 0.626551 110.217 0.488804C111.237 -0.209771 112.644 0.151002 113.415 0.977486C113.878 1.476 114.448 1.27594 115.022 1.25298C118.254 1.1371 121.586 1.13054 125.019 1.2333C125.082 1.23546 125.145 1.22495 125.204 1.2024C125.262 1.17985 125.315 1.14574 125.36 1.10212C125.727 0.747909 126.065 0.298582 126.57 0.160835C128.335 -0.33112 130.325 0.311709 131.135 2.00403ZM73.2258 11.9382C73.3147 11.9375 73.3999 11.9027 73.4639 11.8411C73.528 11.7795 73.566 11.6957 73.5702 11.607L73.685 9.12097C73.6873 9.07254 73.6795 9.02416 73.662 8.97893C73.6446 8.9337 73.6178 8.89262 73.5835 8.85834C73.5493 8.82405 73.5082 8.79732 73.4629 8.77986C73.4177 8.76239 73.3693 8.75458 73.3209 8.75693L70.6775 8.89139C70.587 8.89565 70.5018 8.93505 70.4399 9.0012C70.378 9.06736 70.3444 9.15504 70.3462 9.2456L70.3921 11.6234C70.3939 11.715 70.4317 11.8023 70.4974 11.8661C70.5631 11.93 70.6514 11.9653 70.7431 11.9645L73.2258 11.9382ZM97.8892 9.08436C97.8883 8.99652 97.8525 8.91265 97.7898 8.85119C97.727 8.78973 97.6424 8.75571 97.5546 8.75663L95.6 8.77709C95.5565 8.77755 95.5135 8.78656 95.4734 8.80363C95.4334 8.82069 95.3972 8.84547 95.3667 8.87655C95.3363 8.90763 95.3123 8.94441 95.2961 8.98477C95.2798 9.02513 95.2717 9.06829 95.2722 9.11179L95.298 11.578C95.2989 11.6658 95.3347 11.7497 95.3975 11.8112C95.4603 11.8726 95.5449 11.9066 95.6327 11.9057L97.5873 11.8853C97.6308 11.8848 97.6738 11.8758 97.7138 11.8587C97.7538 11.8417 97.7901 11.8169 97.8205 11.7858C97.851 11.7547 97.875 11.7179 97.8912 11.6776C97.9074 11.6372 97.9155 11.5941 97.9151 11.5506L97.8892 9.08436ZM26.841 8.97339C26.8424 8.95162 26.8392 8.92981 26.8317 8.90933C26.8242 8.88885 26.8126 8.87016 26.7974 8.85443C26.7823 8.83871 26.7641 8.8263 26.744 8.81798C26.7238 8.80966 26.7021 8.80562 26.6803 8.80612L23.5121 8.83564C23.4721 8.83644 23.4338 8.85249 23.4052 8.88053C23.3765 8.90856 23.3597 8.94646 23.358 8.9865L23.2826 11.8005C23.2821 11.8217 23.286 11.8428 23.2939 11.8625C23.3018 11.8822 23.3136 11.9001 23.3286 11.9151C23.3437 11.9301 23.3616 11.9419 23.3813 11.9499C23.4009 11.9578 23.422 11.9616 23.4433 11.9612L26.5557 11.9218C26.5958 11.921 26.634 11.905 26.6627 11.8769C26.6913 11.8489 26.7082 11.811 26.7099 11.771L26.841 8.97339ZM50.8302 9.05157C50.8303 8.99851 50.8094 8.94756 50.7721 8.90991C50.7347 8.87226 50.6839 8.85101 50.6308 8.85082L47.5807 8.84016C47.5544 8.84007 47.5284 8.84515 47.5041 8.85512C47.4798 8.86509 47.4577 8.87976 47.439 8.89827C47.4204 8.91678 47.4056 8.93879 47.3954 8.96303C47.3853 8.98727 47.38 9.01326 47.3799 9.03954L47.3705 11.742C47.3703 11.795 47.3913 11.846 47.4286 11.8836C47.466 11.9213 47.5168 11.9425 47.5699 11.9427L50.62 11.9534C50.6463 11.9535 50.6723 11.9484 50.6966 11.9384C50.7209 11.9284 50.743 11.9138 50.7617 11.8953C50.7803 11.8768 50.7951 11.8548 50.8053 11.8305C50.8154 11.8063 50.8207 11.7803 50.8207 11.754L50.8302 9.05157ZM177.361 9.01917C177.362 8.99656 177.353 8.97472 177.338 8.95842C177.322 8.94213 177.3 8.93273 177.278 8.93229L174.753 8.88382C174.73 8.88339 174.708 8.89195 174.692 8.90763C174.676 8.92331 174.666 8.94481 174.666 8.96741L174.616 11.5842C174.615 11.6068 174.624 11.6286 174.64 11.6449C174.655 11.6612 174.677 11.6706 174.699 11.671L177.224 11.7195C177.247 11.7199 177.269 11.7114 177.285 11.6957C177.301 11.68 177.311 11.6585 177.311 11.6359L177.361 9.01917ZM213.397 11.9284C213.453 11.9276 213.506 11.9054 213.547 11.8664C213.587 11.8274 213.611 11.7745 213.613 11.7185L213.725 9.07506C213.726 9.04538 213.721 9.01575 213.711 8.98794C213.7 8.96013 213.685 8.93473 213.664 8.91327C213.643 8.89182 213.619 8.87474 213.591 8.86309C213.564 8.85144 213.535 8.84544 213.505 8.84547L209.979 8.8586C209.95 8.85902 209.922 8.86513 209.895 8.87657C209.869 8.88801 209.845 8.90455 209.825 8.92526C209.805 8.94597 209.789 8.97044 209.778 8.99727C209.768 9.02409 209.762 9.05276 209.763 9.08161L209.822 11.7644C209.824 11.8221 209.848 11.8768 209.89 11.9167C209.931 11.9566 209.987 11.9785 210.045 11.9776L213.397 11.9284ZM228.146 9.25192C228.146 9.19766 228.135 9.14398 228.114 9.09395C228.093 9.04393 228.062 8.99853 228.024 8.96036C227.985 8.92218 227.939 8.89198 227.889 8.87148C227.839 8.85097 227.785 8.84056 227.731 8.84085L224.707 8.85669C224.597 8.85728 224.492 8.90137 224.415 8.97927C224.338 9.05718 224.295 9.16251 224.296 9.2721L224.308 11.5678C224.308 11.6221 224.319 11.6758 224.34 11.7258C224.361 11.7759 224.392 11.8213 224.43 11.8594C224.469 11.8976 224.515 11.9278 224.565 11.9483C224.615 11.9688 224.669 11.9792 224.723 11.9789L227.747 11.9631C227.857 11.9625 227.962 11.9184 228.039 11.8405C228.116 11.7626 228.159 11.6573 228.158 11.5477L228.146 9.25192ZM242.482 8.99325C242.482 8.97861 242.479 8.9641 242.474 8.95054C242.468 8.93698 242.46 8.92463 242.45 8.91422C242.44 8.90382 242.427 8.89554 242.414 8.88986C242.4 8.88419 242.386 8.88123 242.371 8.88116L238.77 8.8623C238.756 8.86222 238.741 8.86503 238.727 8.87057C238.714 8.8761 238.702 8.88424 238.691 8.89454C238.681 8.90484 238.672 8.91709 238.667 8.93059C238.661 8.94409 238.658 8.95857 238.658 8.97322L238.643 11.8724C238.643 11.8871 238.646 11.9016 238.651 11.9152C238.657 11.9287 238.665 11.9411 238.675 11.9515C238.685 11.9619 238.698 11.9702 238.711 11.9758C238.725 11.9815 238.739 11.9845 238.754 11.9845L242.355 12.0034C242.369 12.0035 242.384 12.0007 242.398 11.9951C242.411 11.9896 242.423 11.9815 242.434 11.9712C242.444 11.9609 242.453 11.9486 242.458 11.9351C242.464 11.9216 242.467 11.9071 242.467 11.8925L242.482 8.99325ZM198.948 9.13412C198.948 9.10828 198.943 9.08271 198.933 9.05887C198.923 9.03503 198.909 9.01339 198.89 8.99518C198.872 8.97697 198.85 8.96254 198.826 8.95274C198.802 8.94293 198.777 8.93794 198.751 8.93803L195.393 8.94974C195.367 8.94983 195.341 8.95501 195.317 8.96498C195.293 8.97495 195.272 8.98952 195.254 9.00786C195.235 9.02619 195.221 9.04795 195.211 9.07185C195.201 9.09576 195.196 9.12137 195.196 9.14721L195.206 11.7709C195.206 11.7968 195.211 11.8223 195.221 11.8462C195.231 11.87 195.245 11.8917 195.264 11.9099C195.282 11.9281 195.304 11.9425 195.328 11.9523C195.352 11.9621 195.377 11.9671 195.403 11.967L198.761 11.9553C198.787 11.9552 198.813 11.9501 198.837 11.9401C198.861 11.9301 198.882 11.9155 198.9 11.8972C198.919 11.8789 198.933 11.8571 198.943 11.8332C198.953 11.8093 198.958 11.7837 198.958 11.7578L198.948 9.13412Z" fill="#36DA9E"/>
<path d="M177.278 8.93232L174.753 8.88384C174.706 8.88294 174.667 8.92037 174.666 8.96746L174.616 11.5842C174.615 11.6313 174.652 11.6702 174.699 11.6711L177.224 11.7195C177.271 11.7205 177.31 11.683 177.311 11.6359L177.361 9.01921C177.362 8.97213 177.325 8.93322 177.278 8.93232Z" fill="#0C2F4B"/>
<path d="M266.994 18.5468L267.013 30.0815L266.984 35.9948C266.984 36.1216 266.92 36.1861 266.793 36.1883C265.068 36.2047 263.209 36.103 261.49 36.3129C256.811 36.8858 253.266 39.21 250.854 43.2856C248.863 46.6473 248.453 51.3372 250.169 54.8695C251.53 57.6736 253.898 60.1104 256.912 60.927C256.977 60.9446 257.034 60.9836 257.075 61.0377C257.115 61.0919 257.136 61.158 257.135 61.2255L257.017 66.0303C257.016 66.0937 256.994 66.1553 256.953 66.2052C256.913 66.2551 256.857 66.2905 256.794 66.3058C252.491 67.2962 249.624 71.4975 249.175 75.7513C248.863 78.7063 249.552 81.6679 251.146 84.1375C253.89 88.3901 257.916 90.5832 263.225 90.7165C264.391 90.7471 265.566 90.746 266.751 90.7132C266.884 90.7089 266.951 90.7734 266.951 90.9068L267.036 108.834C266.229 108.971 265.628 109.038 265.232 109.034C260.501 108.972 256.401 108.941 252.933 108.939C184.453 108.897 124.708 108.894 73.698 108.929C72.9809 108.929 72.2703 108.928 71.5662 108.925C66.6554 108.919 61.7085 108.913 56.7256 108.909C47.9513 108.9 39.505 108.881 31.3867 108.85C29.4014 108.843 27.216 108.85 24.8305 108.87C17.2173 108.931 9.61931 108.954 2.03665 108.939C1.42007 108.936 0.746637 108.964 0.0163574 109.021L0.0622755 90.8445C0.0622751 90.8172 0.067669 90.7902 0.078137 90.7651C0.088605 90.74 0.103933 90.7172 0.123209 90.6983C0.142486 90.6793 0.165316 90.6645 0.190344 90.6547C0.215371 90.6448 0.242085 90.6402 0.268895 90.6411C4.7752 90.7953 8.4255 90.7559 12.0496 88.0928C16.874 84.5441 19.2026 78.9195 17.3004 73.1439C16.2377 69.9233 13.6829 67.2044 10.3474 66.1778C10.2742 66.155 10.21 66.1094 10.1641 66.0476C10.1181 65.9858 10.0928 65.9108 10.0916 65.8335L10.0686 61.2124C10.0686 61.1271 10.1014 61.0582 10.167 61.0058C10.2326 60.9577 10.3168 60.9183 10.4196 60.8877C10.73 60.8177 11.1127 60.6625 11.5674 60.422C14.9871 58.6247 17.0456 55.8512 17.7431 52.1014C18.6647 47.1556 16.6477 42.5181 12.8433 39.2712C9.19295 36.1522 5.08349 35.8833 0.452558 36.2211C0.24703 36.2364 0.143174 36.1413 0.140988 35.9358L0.0294765 18.5993L266.994 18.5468ZM135.691 66.8764C133.29 61.3009 130.974 55.7309 128.741 50.1664C126.554 44.7122 124.399 39.2515 122.172 33.8105C121.77 32.8288 121.431 31.9127 121.155 31.0621C121.117 30.9442 121.043 30.8413 120.943 30.7682C120.842 30.6952 120.722 30.6557 120.598 30.6554L110.847 30.6391C110.517 30.6391 110.415 30.7921 110.542 31.0982L125.727 67.6931L139 99.7521C139.024 99.81 139.06 99.8624 139.105 99.9061C139.15 99.9497 139.203 99.9836 139.262 100.006C139.321 100.028 139.383 100.038 139.446 100.035C139.509 100.032 139.57 100.016 139.626 99.9882C139.911 99.8505 140.123 99.6045 140.263 99.2503C141.137 97.0157 142.014 94.7823 142.893 92.5499C144.349 88.8602 146.238 84.554 147.839 80.5134C149.577 76.1252 151.312 72.019 152.998 67.7882C158.28 54.5163 163.209 42.1978 167.783 30.8326C167.791 30.811 167.795 30.7877 167.792 30.7646C167.79 30.7416 167.782 30.7195 167.77 30.7003C167.757 30.6812 167.74 30.6656 167.72 30.6549C167.7 30.6442 167.677 30.6388 167.655 30.6391H157.232C157.12 30.6391 157.044 30.6904 157.002 30.7932C156.198 32.7545 155.44 34.6479 154.729 36.4736C150.396 47.6333 146.813 56.8045 143.982 63.987C142.47 67.8275 141.033 71.7599 139.479 75.5971C139.389 75.8202 139.3 75.8202 139.21 75.5971L135.691 66.8764ZM133.726 51.6488L134.074 52.5999C134.349 53.3302 134.658 54.0703 134.999 54.8203C135.355 55.6008 135.664 56.3442 135.924 57.0504C136.805 59.4403 137.853 61.9383 139.069 64.5446C139.091 64.5927 139.124 64.6298 139.167 64.6561C139.191 64.6712 139.218 64.6809 139.247 64.6844C139.275 64.6879 139.303 64.6852 139.33 64.6764C139.357 64.6676 139.381 64.6529 139.401 64.6335C139.421 64.6141 139.437 64.5905 139.446 64.5642L145.284 48.6216L149.797 37.0869L150.925 34.2303C150.936 34.201 150.941 34.1694 150.938 34.1381C150.935 34.1068 150.924 34.0766 150.907 34.0501C150.89 34.0236 150.867 34.0014 150.84 33.9854C150.813 33.9695 150.783 33.9601 150.751 33.9581C149.26 33.8706 147.91 33.816 146.701 33.7941C142.949 33.7285 139.455 34.7933 136.219 36.9885C133.966 38.5136 132.283 40.7832 131.011 43.2528C130.847 43.5698 130.829 43.9076 130.958 44.2662C131.85 46.7281 132.773 49.189 133.726 51.6488ZM204.748 39.1991C204.748 38.4493 204.45 37.7302 203.92 37.2C203.39 36.6698 202.671 36.372 201.921 36.372H198.477C197.728 36.372 197.008 36.6698 196.478 37.2C195.948 37.7302 195.65 38.4493 195.65 39.1991V81.0414C195.65 81.7912 195.948 82.5103 196.478 83.0405C197.008 83.5707 197.728 83.8685 198.477 83.8685H201.921C202.671 83.8685 203.39 83.5707 203.92 83.0405C204.45 82.5103 204.748 81.7912 204.748 81.0414V39.1991ZM38.9857 66.555C41.4717 66.5353 43.9512 66.5496 46.4241 66.5977C47.6594 66.6217 48.5635 66.5288 49.1364 66.3189C51.2846 65.5383 51.1895 63.3376 51.1337 61.3993C51.055 58.7526 49.5693 57.6047 47.0079 57.6966C44.242 57.7949 41.6106 57.8398 39.1136 57.831C38.8972 57.831 38.7878 57.7217 38.7857 57.5031L38.7102 50.5009C38.7102 50.3588 38.7802 50.2888 38.9201 50.291C43.9971 50.3085 49.3572 50.3183 55.0005 50.3205C56.1976 50.3238 57.6177 49.4678 57.657 48.0838C57.7008 46.5314 57.6865 45.202 57.6144 44.0956C57.5094 42.4788 56.0106 41.3997 54.4233 41.3899C47.4484 41.3484 40.4299 41.3527 33.3676 41.403C31.2784 41.4194 29.6123 42.2164 29.6156 44.581C29.6353 56.5519 29.6528 68.419 29.6681 80.1822C29.6703 81.3454 30.0792 82.2965 30.8947 83.0355C31.7343 83.7964 33.1511 83.7997 34.2072 83.7964C41.1908 83.768 48.0453 83.7625 54.7709 83.78C55.7067 83.7822 56.5026 83.3974 57.1585 82.6255C57.504 82.2232 57.6811 81.6613 57.6898 80.9398C57.7051 79.5798 57.6767 78.3171 57.6045 77.1517C57.5029 75.5643 55.9286 74.9477 54.5413 74.9445C49.4665 74.9292 44.3021 74.9434 39.048 74.9871C38.9816 74.9871 38.9179 74.961 38.8706 74.9143C38.8233 74.8676 38.7964 74.8042 38.7955 74.7378L38.7463 66.7977C38.7459 66.766 38.7517 66.7345 38.7636 66.7051C38.7754 66.6756 38.793 66.6489 38.8153 66.6263C38.8375 66.6037 38.8641 66.5858 38.8933 66.5736C38.9226 66.5613 38.954 66.555 38.9857 66.555ZM79.7425 73.6293C77.7244 75.4157 75.5817 76.0104 73.3143 75.4135C69.7886 74.4886 67.8798 70.9531 68.621 67.5389C69.0409 65.6203 70.1166 63.9837 71.8745 63.0654C74.5573 61.6584 77.3385 62.3045 79.5687 64.3019C79.7983 64.5052 80.0213 64.4997 80.2377 64.2854L85.341 59.261C85.4202 59.1835 85.4673 59.079 85.4728 58.9683C85.4783 58.8576 85.4417 58.7489 85.3705 58.6641C83.1042 55.9485 80.0836 54.207 76.6235 53.8298C71.9029 53.316 67.882 54.559 64.5608 57.5588C61.3773 60.434 59.6828 64.0657 59.4773 68.454C59.3362 71.4122 60.1857 74.6919 61.8386 77.1058C65.6715 82.701 70.9475 84.9126 77.6665 83.7406C80.5624 83.2355 83.137 81.8581 85.1146 79.641C85.3289 79.4027 85.3256 79.1687 85.1048 78.9392L80.018 73.6392C79.9829 73.6022 79.9345 73.5805 79.8832 73.5786C79.8318 73.5768 79.7813 73.595 79.7425 73.6293ZM180.724 56.0797C180.576 55.6861 180.344 55.3909 180.029 55.1941C178.147 54.0113 176.128 53.5106 173.975 53.692C163.818 54.548 157.54 65.5481 161.502 74.8461C164.08 80.8938 170.059 84.6721 176.553 83.8948C178.407 83.6739 179.796 82.8857 180.721 81.5301C180.848 81.3464 180.909 81.3661 180.905 81.5891C180.885 82.8813 181.502 83.8292 182.866 83.8685C185.223 83.9341 186.996 83.9002 188.186 83.7669C189.215 83.6521 190.173 82.6682 190.173 81.5596C190.175 73.0565 190.186 64.9337 190.206 57.1915C190.209 55.6008 190.196 53.8659 188.107 53.6986C186.848 53.6002 185.554 53.6035 184.227 53.7084C182.272 53.8659 180.78 53.7216 180.846 56.0567C180.852 56.306 180.812 56.3136 180.724 56.0797ZM218.992 71.6713C224.213 71.7041 229.368 71.7162 234.456 71.7074C235.7 71.7052 236.374 71.6943 236.479 71.6746C238.175 71.3302 238.667 69.2804 238.575 67.8013C238.328 63.7935 236.803 60.4078 234 57.6441C227.342 51.0781 215.873 52.9869 211.258 61.0287C207.831 67.0043 208.467 75.1741 213.82 80.0182C217.821 83.6411 222.52 84.8448 227.916 83.6291C229.685 83.2312 231.114 82.4922 232.202 81.412C233.232 80.3921 232.895 78.4997 232.14 77.4764C231.36 76.4182 230.262 75.619 228.847 75.0789C228.583 74.9787 228.294 74.9638 228.021 75.0363C226.866 75.3446 225.696 75.7316 224.498 75.7611C221.853 75.8267 219.92 74.6187 218.7 72.137C218.549 71.8244 218.646 71.6691 218.992 71.6713ZM120.237 68.9459C120.237 64.9047 118.632 61.029 115.774 58.1714C112.916 55.3138 109.041 53.7084 104.999 53.7084C100.958 53.7084 97.0825 55.3138 94.2249 58.1714C91.3674 61.029 89.762 64.9047 89.762 68.9459C89.762 72.9871 91.3674 76.8628 94.2249 79.7204C97.0825 82.578 100.958 84.1834 104.999 84.1834C109.041 84.1834 112.916 82.578 115.774 79.7204C118.632 76.8628 120.237 72.9871 120.237 68.9459Z" fill="white"/>
<path d="M135.868 124.89C135.566 124.109 135.201 123.502 134.773 123.069C133.923 122.21 132.231 122.236 131.309 122.928C130.109 123.83 129.938 125.919 128.512 126.506C126.824 127.204 125.422 126.938 124.307 125.709C124.218 125.612 124.104 125.54 123.977 125.502C123.849 125.465 123.714 125.463 123.586 125.496C123.201 125.595 122.877 125.648 122.615 125.657C119.13 125.788 115.992 125.79 113.202 125.664C112.795 125.647 112.418 125.477 112.084 125.86C111.325 126.726 110.305 126.968 109.024 126.585C108.44 126.411 108.056 126.018 107.554 125.7C107.454 125.634 107.343 125.603 107.223 125.608C104.735 125.7 102.19 125.747 99.588 125.749C72.2834 125.768 44.9799 125.777 17.6776 125.775C14.0043 125.775 11.2756 124.607 10.3278 120.806C10.0742 119.79 9.84128 119.071 9.62918 118.652C7.69745 114.821 4.04059 114.772 0.190216 114.906C0.165558 114.907 0.140991 114.903 0.11795 114.894C0.0949097 114.885 0.0738831 114.871 0.0561523 114.854C0.0383911 114.836 0.0242615 114.815 0.0146179 114.792C0.00494385 114.769 0 114.744 0 114.719L0.00982666 108.347L266.974 108.294L267.003 114.542C267.003 114.587 266.994 114.631 266.977 114.671C266.959 114.712 266.934 114.749 266.902 114.78C266.869 114.811 266.831 114.834 266.79 114.85C266.748 114.865 266.703 114.872 266.659 114.87C263.366 114.726 259.982 114.854 257.86 117.687C256.348 119.708 256.538 122.426 254.416 124.112C252.36 125.749 249.9 125.752 247.417 125.755C216.946 125.786 187.179 125.785 158.114 125.752C157.852 125.752 157.609 125.83 157.386 125.985C157.185 126.127 156.985 126.267 156.786 126.405C155.766 127.103 154.359 126.743 153.588 125.916C153.126 125.418 152.555 125.618 151.981 125.641C148.75 125.756 145.417 125.763 141.985 125.66C141.921 125.658 141.859 125.669 141.8 125.691C141.741 125.714 141.688 125.748 141.644 125.791C141.276 126.146 140.938 126.595 140.433 126.733C138.669 127.225 136.678 126.582 135.868 124.89ZM193.778 114.955C193.689 114.956 193.604 114.991 193.54 115.052C193.475 115.114 193.437 115.198 193.433 115.287L193.318 117.773C193.316 117.821 193.324 117.869 193.341 117.915C193.359 117.96 193.386 118.001 193.42 118.035C193.454 118.07 193.495 118.096 193.54 118.114C193.586 118.131 193.634 118.139 193.683 118.137L196.326 118.002C196.416 117.998 196.502 117.959 196.564 117.892C196.625 117.826 196.659 117.739 196.657 117.648L196.611 115.27C196.61 115.179 196.572 115.091 196.506 115.027C196.44 114.964 196.352 114.928 196.26 114.929L193.778 114.955ZM169.114 117.809C169.115 117.897 169.151 117.981 169.214 118.042C169.276 118.104 169.361 118.138 169.449 118.137L171.403 118.116C171.447 118.116 171.49 118.107 171.53 118.09C171.57 118.073 171.606 118.048 171.637 118.017C171.667 117.986 171.691 117.949 171.707 117.909C171.724 117.868 171.732 117.825 171.731 117.782L171.705 115.316C171.704 115.228 171.669 115.144 171.606 115.082C171.543 115.021 171.459 114.987 171.371 114.988L169.416 115.008C169.373 115.009 169.33 115.018 169.29 115.035C169.25 115.052 169.213 115.077 169.183 115.108C169.152 115.139 169.128 115.176 169.112 115.216C169.096 115.256 169.088 115.299 169.088 115.343L169.114 117.809ZM240.162 117.92C240.161 117.942 240.164 117.964 240.172 117.984C240.179 118.005 240.191 118.023 240.206 118.039C240.221 118.055 240.239 118.067 240.259 118.076C240.28 118.084 240.301 118.088 240.323 118.087L243.491 118.058C243.531 118.057 243.57 118.041 243.598 118.013C243.627 117.985 243.644 117.947 243.645 117.907L243.721 115.093C243.721 115.072 243.717 115.051 243.71 115.031C243.702 115.011 243.69 114.993 243.675 114.978C243.66 114.963 243.642 114.952 243.622 114.944C243.602 114.936 243.581 114.932 243.56 114.932L240.448 114.972C240.408 114.973 240.369 114.989 240.341 115.017C240.312 115.045 240.295 115.083 240.294 115.123L240.162 117.92ZM216.173 117.842C216.173 117.895 216.194 117.946 216.231 117.984C216.269 118.021 216.32 118.043 216.373 118.043L219.423 118.053C219.449 118.053 219.475 118.048 219.499 118.038C219.524 118.028 219.546 118.014 219.564 117.995C219.583 117.977 219.598 117.955 219.608 117.931C219.618 117.906 219.623 117.88 219.623 117.854L219.633 115.152C219.633 115.099 219.612 115.048 219.575 115.01C219.537 114.972 219.487 114.951 219.434 114.951L216.383 114.94C216.357 114.94 216.331 114.945 216.307 114.955C216.283 114.965 216.26 114.98 216.242 114.998C216.223 115.017 216.208 115.039 216.198 115.063C216.188 115.087 216.183 115.113 216.183 115.14L216.173 117.842ZM89.6421 117.874C89.6416 117.897 89.6502 117.919 89.6659 117.935C89.6815 117.951 89.703 117.961 89.7256 117.961L92.2505 118.01C92.2732 118.01 92.295 118.002 92.3113 117.986C92.3276 117.97 92.337 117.949 92.3374 117.926L92.3877 115.309C92.3881 115.287 92.3795 115.265 92.3639 115.249C92.3482 115.232 92.3267 115.223 92.3041 115.223L89.7792 115.174C89.7566 115.174 89.7347 115.182 89.7184 115.198C89.7021 115.214 89.6927 115.235 89.6923 115.258L89.6421 117.874ZM53.6066 114.965C53.5506 114.966 53.497 114.988 53.4567 115.027C53.4165 115.066 53.3927 115.119 53.3902 115.175L53.2787 117.818C53.2773 117.848 53.282 117.878 53.2925 117.906C53.3029 117.933 53.3189 117.959 53.3394 117.98C53.36 118.002 53.3847 118.019 53.412 118.03C53.4393 118.042 53.4687 118.048 53.4984 118.048L57.0241 118.035C57.0529 118.035 57.0814 118.028 57.1079 118.017C57.1344 118.006 57.1584 117.989 57.1785 117.968C57.1986 117.948 57.2144 117.923 57.2251 117.896C57.2357 117.869 57.241 117.841 57.2406 117.812L57.1815 115.129C57.1798 115.071 57.1554 115.017 57.1137 114.977C57.072 114.937 57.0162 114.915 56.9585 114.916L53.6066 114.965ZM38.8573 117.642C38.8576 117.696 38.8686 117.75 38.8896 117.8C38.9106 117.85 38.9413 117.895 38.9799 117.933C39.0185 117.971 39.0642 118.002 39.1144 118.022C39.1647 118.043 39.2184 118.053 39.2727 118.053L42.2966 118.037C42.4062 118.036 42.511 117.992 42.5881 117.914C42.6652 117.836 42.7082 117.731 42.7076 117.621L42.6956 115.326C42.6953 115.271 42.6844 115.218 42.6633 115.168C42.6423 115.118 42.6116 115.072 42.5731 115.034C42.5345 114.996 42.4888 114.966 42.4385 114.945C42.3883 114.925 42.3345 114.914 42.2802 114.915L39.2564 114.93C39.1468 114.931 39.0419 114.975 38.9648 115.053C38.8877 115.131 38.8447 115.236 38.8453 115.346L38.8573 117.642ZM24.5213 117.9C24.5212 117.915 24.524 117.929 24.5295 117.943C24.5351 117.957 24.5432 117.969 24.5535 117.979C24.5638 117.99 24.5761 117.998 24.5896 118.004C24.6031 118.009 24.6176 118.012 24.6322 118.012L28.2333 118.031C28.2479 118.031 28.2624 118.029 28.276 118.023C28.2896 118.017 28.3019 118.009 28.3123 117.999C28.3227 117.989 28.331 117.976 28.3367 117.963C28.3423 117.949 28.3453 117.935 28.3454 117.92L28.3606 115.021C28.3606 115.006 28.3578 114.992 28.3523 114.978C28.3468 114.965 28.3386 114.952 28.3283 114.942C28.318 114.932 28.3057 114.923 28.2922 114.918C28.2787 114.912 28.2643 114.909 28.2496 114.909L24.6486 114.89C24.6339 114.89 24.6194 114.893 24.6059 114.898C24.5923 114.904 24.5799 114.912 24.5695 114.922C24.5591 114.933 24.5508 114.945 24.5452 114.958C24.5395 114.972 24.5365 114.986 24.5365 115.001L24.5213 117.9ZM68.055 117.759C68.0551 117.785 68.0603 117.811 68.0703 117.835C68.0802 117.859 68.0948 117.88 68.1132 117.898C68.1315 117.917 68.1532 117.931 68.1771 117.941C68.201 117.951 68.2267 117.956 68.2525 117.956L71.6109 117.944C71.6367 117.944 71.6623 117.939 71.6861 117.929C71.71 117.919 71.7316 117.904 71.7498 117.886C71.768 117.867 71.7824 117.846 71.7923 117.822C71.802 117.798 71.8071 117.772 71.807 117.746L71.7978 115.123C71.7977 115.097 71.7926 115.071 71.7826 115.047C71.7726 115.024 71.758 115.002 71.7397 114.984C71.7214 114.965 71.6996 114.951 71.6757 114.941C71.6518 114.931 71.6262 114.926 71.6003 114.927L68.242 114.938C68.2161 114.938 68.1905 114.944 68.1667 114.953C68.1429 114.963 68.1212 114.978 68.103 114.996C68.0848 115.015 68.0704 115.036 68.0606 115.06C68.0508 115.084 68.0458 115.11 68.0459 115.136L68.055 117.759Z" fill="#36DA9E"/>
<path d="M125.727 67.6931C125.707 67.4853 125.773 67.4219 125.924 67.5028C126.86 67.9882 127.735 68.2812 128.551 68.3818C131.168 68.7032 133.548 68.2014 135.691 66.8764L139.21 75.5971C139.3 75.8202 139.389 75.8202 139.479 75.5971C141.034 71.7599 142.47 67.8275 143.982 63.987C146.813 56.8045 150.396 47.6333 154.73 36.4736C155.44 34.6479 156.198 32.7545 157.002 30.7932C157.044 30.6904 157.12 30.639 157.232 30.639H167.655C167.677 30.6388 167.7 30.6442 167.72 30.6549C167.74 30.6656 167.757 30.6812 167.77 30.7003C167.782 30.7195 167.79 30.7416 167.792 30.7646C167.795 30.7877 167.791 30.811 167.783 30.8325C163.209 42.1978 158.28 54.5163 152.998 67.7882C151.312 72.019 149.577 76.1252 147.839 80.5134C146.238 84.554 144.349 88.8602 142.893 92.5499C142.014 94.7823 141.137 97.0157 140.263 99.2503C140.123 99.6045 139.911 99.8505 139.627 99.9882C139.57 100.016 139.509 100.032 139.446 100.035C139.384 100.038 139.321 100.028 139.262 100.006C139.203 99.9836 139.15 99.9497 139.105 99.906C139.06 99.8624 139.024 99.81 139 99.7521L125.727 67.6931Z" fill="#062D46"/>
<path d="M135.691 66.8764C133.548 68.2014 131.168 68.7032 128.551 68.3818C127.735 68.2812 126.86 67.9882 125.924 67.5028C125.773 67.4219 125.707 67.4853 125.727 67.693L110.542 31.0982C110.415 30.7921 110.517 30.639 110.847 30.639L120.598 30.6554C120.722 30.6557 120.842 30.6951 120.943 30.7682C121.043 30.8413 121.117 30.9441 121.155 31.0621C121.431 31.9126 121.77 32.8288 122.172 33.8105C124.399 39.2515 126.554 44.7122 128.741 50.1663C130.974 55.7309 133.29 61.3009 135.691 66.8764Z" fill="#36DA9E"/>
<path d="M149.797 37.0869C143.869 37.7757 139.352 40.5722 136.245 45.4764C135.056 47.3502 134.216 49.4077 133.726 51.6488C132.773 49.189 131.85 46.7281 130.958 44.2662C130.829 43.9076 130.847 43.5698 131.011 43.2528C132.283 40.7831 133.966 38.5136 136.219 36.9885C139.455 34.7933 142.949 33.7285 146.701 33.7941C147.91 33.816 149.26 33.8706 150.751 33.9581C150.783 33.9601 150.813 33.9694 150.84 33.9854C150.867 34.0014 150.89 34.0236 150.907 34.0501C150.924 34.0766 150.935 34.1068 150.938 34.1381C150.941 34.1694 150.936 34.201 150.925 34.2303L149.797 37.0869Z" fill="#36DA9E"/>
<path d="M201.921 36.3719H198.477C196.916 36.3719 195.65 37.6377 195.65 39.199V81.0414C195.65 82.6028 196.916 83.8685 198.477 83.8685H201.921C203.482 83.8685 204.748 82.6028 204.748 81.0414V39.199C204.748 37.6377 203.482 36.3719 201.921 36.3719Z" fill="#062D46"/>
<path d="M149.797 37.0869L145.284 48.6216C145.043 48.5801 144.862 48.6096 144.74 48.7101C143.39 49.8318 141.92 50.7654 140.328 51.511C138.341 52.4424 136.256 52.8054 134.074 52.5999L133.726 51.6488C134.216 49.4076 135.056 47.3502 136.245 45.4764C139.352 40.5721 143.869 37.7757 149.797 37.0869Z" fill="#062D46"/>
<path d="M38.7463 66.7977L38.7955 74.7378C38.7963 74.8042 38.8233 74.8676 38.8706 74.9143C38.9179 74.9609 38.9816 74.9871 39.048 74.9871C44.3021 74.9434 49.4665 74.9291 54.5413 74.9445C55.9286 74.9477 57.5029 75.5643 57.6045 77.1517C57.6767 78.3171 57.7051 79.5798 57.6898 80.9397C57.6811 81.6613 57.504 82.2232 57.1585 82.6255C56.5026 83.3973 55.7067 83.7821 54.7709 83.78C48.0453 83.7625 41.1907 83.7679 34.2072 83.7964C33.1511 83.7997 31.7343 83.7964 30.8947 83.0355C30.0791 82.2965 29.6703 81.3453 29.6681 80.1821C29.6528 68.419 29.6353 56.5519 29.6156 44.581C29.6123 42.2164 31.2784 41.4194 33.3676 41.403C40.4299 41.3527 47.4484 41.3483 54.4232 41.3899C56.0106 41.3997 57.5094 42.4787 57.6144 44.0956C57.6865 45.202 57.7007 46.5314 57.657 48.0837C57.6177 49.4678 56.1975 50.3238 55.0005 50.3205C49.3572 50.3183 43.9971 50.3085 38.9201 50.291C38.7802 50.2888 38.7102 50.3588 38.7102 50.5009L38.7856 57.503C38.7878 57.7217 38.8971 57.831 39.1136 57.831C41.6106 57.8398 44.242 57.7949 47.0078 57.6965C49.5693 57.6047 51.055 58.7526 51.1337 61.3993C51.1895 63.3376 51.2846 65.5383 49.1364 66.3189C48.5635 66.5288 47.6594 66.6217 46.4241 66.5976C43.9512 66.5495 41.4717 66.5353 38.9857 66.555C38.954 66.555 38.9226 66.5613 38.8933 66.5735C38.8641 66.5858 38.8375 66.6037 38.8152 66.6263C38.793 66.6489 38.7754 66.6756 38.7636 66.7051C38.7517 66.7345 38.7458 66.766 38.7463 66.7977Z" fill="#062D46"/>
<path d="M145.284 48.6217L139.446 64.5643C139.437 64.5905 139.421 64.6142 139.401 64.6336C139.381 64.653 139.357 64.6676 139.33 64.6764C139.303 64.6852 139.275 64.688 139.247 64.6845C139.218 64.681 139.191 64.6713 139.167 64.6561C139.124 64.6299 139.091 64.5927 139.069 64.5446C137.853 61.9383 136.805 59.4403 135.924 57.0505C135.664 56.3443 135.355 55.6009 134.999 54.8203C134.658 54.0703 134.349 53.3302 134.074 52.5999C136.256 52.8055 138.341 52.4425 140.328 51.5111C141.92 50.7655 143.39 49.8319 144.74 48.7102C144.862 48.6096 145.043 48.5801 145.284 48.6217Z" fill="#19CCD8"/>
<path d="M79.7425 73.6293C79.7814 73.5949 79.8318 73.5767 79.8832 73.5786C79.9346 73.5804 79.9829 73.6021 80.018 73.6391L85.1048 78.9391C85.3257 79.1687 85.3289 79.4026 85.1147 79.641C83.137 81.858 80.5625 83.2355 77.6665 83.7406C70.9475 84.9125 65.6715 82.7009 61.8387 77.1058C60.1857 74.6919 59.3363 71.4122 59.4773 68.4539C59.6828 64.0657 61.3773 60.434 64.5608 57.5588C67.8821 54.5589 71.903 53.3159 76.6235 53.8297C80.0836 54.2069 83.1042 55.9484 85.3705 58.664C85.4417 58.7489 85.4783 58.8576 85.4728 58.9683C85.4673 59.079 85.4202 59.1835 85.341 59.2609L80.2378 64.2854C80.0213 64.4997 79.7983 64.5052 79.5687 64.3018C77.3385 62.3045 74.5573 61.6584 71.8745 63.0654C70.1166 63.9837 69.0409 65.6203 68.6211 67.5389C67.8799 70.9531 69.7886 74.4886 73.3143 75.4134C75.5817 76.0103 77.7244 75.4156 79.7425 73.6293Z" fill="#062D46"/>
<path d="M180.846 56.0567C180.78 53.7216 182.272 53.8659 184.227 53.7084C185.554 53.6035 186.848 53.6002 188.107 53.6986C190.196 53.8659 190.209 55.6008 190.206 57.1915C190.186 64.9338 190.175 73.0565 190.173 81.5596C190.173 82.6682 189.215 83.6521 188.186 83.7669C186.996 83.9002 185.223 83.9341 182.866 83.8685C181.502 83.8292 180.885 82.8813 180.905 81.5891C180.909 81.3661 180.848 81.3464 180.721 81.5301C179.796 82.8857 178.407 83.6739 176.553 83.8948C170.059 84.6721 164.08 80.8938 161.502 74.8461C157.54 65.5481 163.817 54.548 173.975 53.692C176.128 53.5106 178.147 54.0113 180.029 55.1942C180.344 55.3909 180.576 55.6861 180.724 56.0797C180.812 56.3136 180.852 56.306 180.846 56.0567ZM175.712 75.4741C176.509 75.4268 177.287 75.2102 178.003 74.8368C178.719 74.4634 179.359 73.9404 179.886 73.2977C180.413 72.655 180.816 71.9052 181.074 71.0911C181.331 70.277 181.437 69.4145 181.386 68.5529C181.283 66.8128 180.545 65.182 179.334 64.0191C178.124 62.8563 176.541 62.2567 174.933 62.3522C174.137 62.3995 173.358 62.616 172.642 62.9895C171.926 63.3629 171.286 63.8859 170.76 64.5286C170.233 65.1712 169.829 65.9211 169.572 66.7352C169.314 67.5493 169.208 68.4118 169.259 69.2734C169.363 71.0134 170.101 72.6443 171.311 73.8071C172.521 74.97 174.104 75.5696 175.712 75.4741Z" fill="#062D46"/>
<path d="M218.992 71.6713C218.646 71.6691 218.549 71.8244 218.7 72.137C219.92 74.6187 221.853 75.8267 224.498 75.7611C225.696 75.7316 226.866 75.3446 228.021 75.0363C228.294 74.9638 228.583 74.9787 228.847 75.0789C230.262 75.619 231.36 76.4182 232.14 77.4764C232.894 78.4997 233.232 80.3921 232.202 81.412C231.114 82.4922 229.685 83.2312 227.916 83.6291C222.52 84.8448 217.821 83.6411 213.82 80.0182C208.467 75.1741 207.831 67.0043 211.258 61.0287C215.873 52.9869 227.342 51.0781 234 57.6441C236.803 60.4078 238.328 63.7935 238.575 67.8013C238.667 69.2804 238.175 71.3302 236.479 71.6746C236.374 71.6943 235.7 71.7052 234.456 71.7074C229.368 71.7162 224.213 71.7041 218.992 71.6713ZM228.395 64.1247C225.882 61.2222 222.153 61.2452 219.503 64.0624C219.399 64.1761 219.424 64.233 219.579 64.233L228.339 64.2395C228.353 64.2392 228.366 64.2351 228.378 64.2278C228.389 64.2205 228.398 64.2102 228.404 64.1982C228.41 64.1861 228.412 64.1728 228.411 64.1598C228.409 64.1468 228.403 64.1347 228.395 64.1247Z" fill="#062D46"/>
<path d="M120.237 68.9459C120.237 72.9871 118.632 76.8628 115.774 79.7204C112.916 82.578 109.041 84.1834 104.999 84.1834C100.958 84.1834 97.0825 82.578 94.2249 79.7204C91.3673 76.8628 89.762 72.9871 89.762 68.9459C89.762 64.9047 91.3673 61.029 94.2249 58.1714C97.0825 55.3138 100.958 53.7084 104.999 53.7084C109.041 53.7084 112.916 55.3138 115.774 58.1714C118.632 61.029 120.237 64.9047 120.237 68.9459ZM105.739 75.5947C106.559 75.5099 107.354 75.2549 108.077 74.8443C108.801 74.4336 109.439 73.8754 109.956 73.2014C110.473 72.5274 110.857 71.7508 111.089 70.9161C111.32 70.0814 111.392 69.2048 111.303 68.3364C111.121 66.5826 110.289 64.9686 108.99 63.8496C107.69 62.7305 106.029 62.198 104.372 62.3693C103.551 62.454 102.757 62.709 102.033 63.1197C101.309 63.5303 100.671 64.0886 100.154 64.7626C99.6378 65.4366 99.2529 66.2131 99.0219 67.0479C98.7908 67.8826 98.7181 68.7592 98.8078 69.6276C98.9891 71.3814 99.8211 72.9953 101.121 74.1144C102.421 75.2334 104.082 75.7659 105.739 75.5947Z" fill="#062D46"/>
<path d="M219.504 64.0625C222.154 61.2452 225.883 61.2222 228.395 64.1248C228.403 64.1347 228.409 64.1468 228.411 64.1598C228.412 64.1728 228.41 64.1861 228.404 64.1982C228.398 64.2102 228.389 64.2205 228.378 64.2278C228.366 64.2352 228.353 64.2392 228.339 64.2396L219.579 64.233C219.424 64.233 219.399 64.1762 219.504 64.0625Z" fill="white"/>
<path d="M98.8078 69.6276C99.1852 73.2797 102.288 75.9513 105.739 75.5948C109.189 75.2382 111.68 71.9885 111.302 68.3364C110.925 64.6843 107.822 62.0127 104.372 62.3693C100.921 62.7259 98.4304 65.9755 98.8078 69.6276Z" fill="white"/>
<path d="M169.259 69.2733C169.475 72.8968 172.364 75.673 175.712 75.4741C179.061 75.2751 181.601 72.1764 181.386 68.5529C181.171 64.9294 178.282 62.1532 174.933 62.3522C171.584 62.5511 169.044 65.6498 169.259 69.2733Z" fill="white"/>
</svg>
